<svg width="295" height="147" viewBox="0 0 295 147" fill="none" xmlns="http://www.w3.org/2000/svg">
<path fill-rule="evenodd" clip-rule="evenodd" d="M277.532 134.576C283.189 137.86 288.558 141.562 293.506 145.855C293.6 145.936 293.701 146.012 293.802 146.088C294.111 146.321 294.426 146.558 294.566 146.965C294.133 147.088 293.846 146.863 293.568 146.646C293.478 146.576 293.39 146.507 293.298 146.45C279.798 138.145 265.257 132.545 249.741 129.311C240.639 127.413 231.455 126.258 222.194 125.739C209.779 125.047 197.368 125.369 184.969 126.252C167.055 127.53 149.274 129.963 131.5 132.453C130.155 132.643 128.804 132.813 127.455 132.984C126.825 133.064 126.194 133.143 125.565 133.225C110.654 135.373 95.7364 137.483 80.6925 138.499C80.4738 138.514 80.2551 138.499 80.0375 138.485C79.9402 138.478 79.8432 138.471 79.7465 138.467C76.5362 138.881 73.3069 138.925 70.0813 138.968C69.5844 138.975 69.0876 138.981 68.5909 138.989C61.6337 139.1 54.6765 138.869 47.8047 137.632C35.0925 135.338 24.3134 129.406 15.5623 119.95C5.79874 109.411 0.568947 96.8443 0.0437544 82.5217C-0.421326 69.8538 2.81209 58.056 10.1806 47.6375C21.447 31.7077 36.9053 23.3648 56.4482 22.713C61.8109 22.5358 67.0691 23.273 72.2325 24.6493C73.1595 24.896 73.6467 24.7125 74.251 24.0386C82.3567 15.0091 92.0506 8.23539 103.51 4.23C123.091 -2.61016 142.15 -1.12632 160.528 8.47585C164.068 10.3298 167.416 12.5318 170.418 15.2053C174.908 18.5969 178.65 22.7162 182.036 27.1771C183.45 29.0406 184.681 31.0054 185.737 33.103L185.426 32.7695C183.025 30.1984 180.636 27.6387 178.034 25.2883C168.998 17.1289 158.557 11.7472 146.63 9.25097C136.382 7.10907 126.201 7.40331 116.146 10.2286C103.754 13.712 93.3193 20.3433 84.9099 30.1385C82.6762 32.7455 80.7305 35.5549 78.8828 38.4308C78.2817 39.361 77.7565 39.5287 76.7156 39.1775C72.0711 37.6114 67.3665 36.3459 62.4152 36.0864C50.7217 35.4758 40.3317 38.8484 31.394 46.3498C22.7251 53.6298 17.6694 63.0073 16.195 74.2515C13.1609 97.4106 29.8912 119.076 53.0534 122.079C57.3496 122.638 61.6639 122.82 65.9816 123.002L66.2877 123.015C77.6711 123.066 89.007 122.25 100.327 121.165C100.571 121.141 100.82 121.162 101.068 121.183C101.188 121.194 101.307 121.204 101.425 121.209C104.807 120.64 108.221 120.332 111.634 120.024C113.195 119.883 114.756 119.742 116.314 119.576L116.891 119.515C131.297 117.982 145.712 116.448 160.177 115.527C171.367 114.818 182.564 114.413 193.783 114.641C203.91 114.85 213.993 115.542 224.01 116.988C242.876 119.712 260.935 124.939 277.532 134.576ZM91.0666 122.633V122.639C91.0795 122.635 91.0934 122.629 91.1078 122.623C91.1182 122.619 91.1288 122.614 91.1394 122.61C91.1299 122.61 91.1212 122.611 91.1125 122.612C91.1038 122.613 91.0951 122.614 91.0856 122.614C91.0814 122.616 91.0772 122.621 91.073 122.626C91.0709 122.628 91.0687 122.63 91.0666 122.633ZM76.0238 77.6769C75.9359 77.8502 75.8395 78.032 75.7348 78.222C75.3741 78.8769 74.9597 79.573 74.4914 80.307C74.0232 81.0442 73.5296 81.7718 73.0076 82.4932C72.4856 83.2145 71.9825 83.8694 71.5016 84.4579C71.0207 85.0464 70.5778 85.521 70.1791 85.8816C69.7805 86.2423 69.4578 86.4227 69.2173 86.4227C69.1382 86.4227 69.0971 86.3182 69.0971 86.1031C69.0971 85.7013 69.23 85.135 69.4989 84.3978C69.7678 83.6638 70.1159 82.8127 70.5461 81.8509C70.9733 80.8891 71.4636 79.8451 72.0142 78.7219C72.5647 77.5988 73.1341 76.4471 73.7258 75.2702C74.4503 73.8528 75.1685 72.4006 75.8803 70.9168C76.589 69.433 77.2408 68.0156 77.8324 66.6646C78.424 65.3137 78.8986 64.0766 79.2624 62.9535C79.6263 61.8303 79.8066 60.9223 79.8066 60.2263C79.8066 59.6378 79.6991 59.1506 79.4839 58.7614C79.2656 58.3723 78.9967 58.0654 78.674 57.8376C78.3513 57.6098 78.0001 57.4516 77.6236 57.3567C77.2471 57.2618 76.8959 57.2143 76.5732 57.2143C75.9531 57.2143 75.4216 57.3282 74.9755 57.556C74.5294 57.7838 74.3079 58.0432 74.3079 58.3375C74.3079 58.5241 74.3617 58.6602 74.4693 58.7393V58.7804C74.4693 59.1031 74.3554 59.603 74.1276 60.2864C73.8998 60.9698 73.5897 61.786 73.2038 62.7352C72.8178 63.6843 72.3748 64.7284 71.8813 65.8642C71.3877 67.0032 70.872 68.1706 70.3373 69.376C69.7489 70.7143 69.1541 72.0906 68.5529 73.508C68.0849 74.614 67.6456 75.6855 67.2337 76.724C67.1819 76.7948 67.1345 76.8734 67.0913 76.9598V76.9186C65.6739 79.5952 64.1553 82.0946 62.5386 84.4232C60.9218 86.7486 59.2893 88.7766 57.6441 90.5009C56.0021 92.2252 54.3822 93.5824 52.7908 94.5727C51.1995 95.5598 49.7219 96.0565 48.3583 96.0565C47.5263 96.0565 46.7733 95.8762 46.0899 95.5155C45.4065 95.1548 44.8244 94.6391 44.3435 93.9716C43.8626 93.3008 43.4924 92.5067 43.2393 91.5829C42.9862 90.6622 42.8596 89.6371 42.8596 88.514C42.8596 87.6598 42.9988 86.5429 43.2804 85.1635C43.562 83.7841 43.9891 82.2623 44.5618 80.5886C45.1344 78.915 45.8748 77.1559 46.7828 75.3114C47.6908 73.4669 48.7696 71.6604 50.0257 69.895C50.8261 68.7718 51.6456 67.7531 52.4871 66.8451C53.3287 65.9339 54.1291 65.1524 54.8885 64.4975C55.6478 63.8426 56.347 63.3332 56.9892 62.9725C57.6283 62.6119 58.163 62.4315 58.5901 62.4315C59.0425 62.4315 59.3494 62.6657 59.5108 63.1339C59.6721 63.6021 59.7512 64.1305 59.7512 64.719C59.7512 65.358 59.6626 66.0541 59.4918 66.8039C59.321 67.5537 59.0742 68.2909 58.7578 69.0122C58.4414 69.7336 58.0554 70.4107 57.6062 71.0371C57.1569 71.6667 56.6539 72.1792 56.097 72.581C55.9388 72.7171 55.8123 72.85 55.7205 72.9828C55.6288 73.1189 55.5813 73.2897 55.5813 73.5049C55.5813 73.7991 55.7016 74.0933 55.942 74.3876C56.1825 74.6818 56.483 74.9507 56.8437 75.1912C57.2044 75.4316 57.603 75.6278 58.0459 75.7733C58.4857 75.922 58.9065 75.9948 59.3083 75.9948C59.5741 75.9948 59.8303 75.9695 60.0708 75.9157C60.3112 75.8619 60.5264 75.7417 60.713 75.555V75.5961C61.9438 74.5268 62.8265 73.2739 63.3611 71.8439C63.8958 70.4138 64.1648 68.9775 64.1648 67.5316C64.1648 66.1142 63.9654 64.8772 63.5636 63.8204C63.1618 62.7637 62.6208 61.881 61.9374 61.1723C61.254 60.4636 60.4726 59.9353 59.5899 59.5873C58.7072 59.2392 57.7833 59.0652 56.8215 59.0652C56.0717 59.0652 55.3282 59.1506 54.5942 59.3247C53.8571 59.4987 53.161 59.7201 52.5061 59.9859C51.8512 60.2548 51.2564 60.5491 50.7217 60.8686C50.187 61.1881 49.7314 61.5108 49.3581 61.8304C47.6465 63.2478 46.1152 64.7253 44.7643 66.2629C43.4133 67.8005 42.2016 69.4457 41.1322 71.1985C40.0628 72.9512 39.1137 74.8115 38.2848 76.7763C37.4558 78.741 36.706 80.8481 36.0385 83.0944C35.8233 83.898 35.6493 84.7554 35.5164 85.6634C35.3835 86.5714 35.3171 87.4573 35.3171 88.3115C35.3171 89.6751 35.5133 91.0261 35.8993 92.3644C36.2884 93.7026 36.8895 94.8986 37.7058 95.9553C38.5221 97.012 39.5598 97.8757 40.8158 98.5433C42.0719 99.2108 43.5683 99.5462 45.3084 99.5462C47.3966 99.5462 49.4878 99.0368 51.5886 98.0213C53.6862 97.0057 55.7522 95.5535 57.7865 93.6678C59.8208 91.7822 61.8014 89.5074 63.725 86.8467C64.0512 86.3954 64.3748 85.9351 64.6957 85.4657C64.7558 86.5413 65.0397 87.4049 65.5473 88.052C66.1231 88.7892 66.9299 89.1562 67.974 89.1562C68.6415 89.1562 69.3376 88.9221 70.0589 88.4538C70.7834 87.9856 71.4984 87.3844 72.2071 86.6473C72.9158 85.9101 73.6056 85.0938 74.2731 84.1985C74.4697 83.9348 74.6617 83.6716 74.849 83.409C74.8522 84.1722 74.9661 84.9046 75.1907 85.6032C75.4185 86.3119 75.7475 86.9352 76.1746 87.4699C76.6017 88.0046 77.1364 88.4254 77.7786 88.7323C78.4209 89.0391 79.1423 89.1942 79.9459 89.1942C80.9899 89.1942 81.9517 88.9189 82.8344 88.3716C83.7171 87.8242 84.5239 87.1345 85.2611 86.3056C85.9951 85.4767 86.6437 84.594 87.2068 83.6575C87.77 82.721 88.2382 81.8541 88.6116 81.0505C89.3867 81.022 90.1365 80.9303 90.8579 80.7689C91.2345 80.6847 91.5965 80.5849 91.9442 80.4687C91.6558 81.2662 91.4243 82.0465 91.247 82.8097C91.0603 83.6133 90.9654 84.3505 90.9654 85.0181C90.9654 86.3026 91.2533 87.315 91.8291 88.049C92.405 88.7862 93.2117 89.1532 94.2558 89.1532C95.1891 89.1532 96.1794 88.7197 97.2235 87.8497C98.2643 86.9796 99.2546 85.9419 100.191 84.7397C100.191 84.7681 100.185 84.7808 100.172 84.7808C100.159 84.7808 100.153 84.7966 100.153 84.8219C100.182 84.8219 100.194 84.8884 100.194 85.0212C100.194 86.3058 100.482 87.3182 101.058 88.0522C101.631 88.7893 102.441 89.1564 103.485 89.1564C104.152 89.1564 104.848 88.9222 105.57 88.454C106.291 87.9857 107.006 87.3846 107.715 86.6474C108.423 85.9103 109.113 85.094 109.781 84.1986C109.88 84.066 109.977 83.9335 110.074 83.8011C110.111 84.3123 110.206 84.8299 110.356 85.3565C110.556 86.0525 110.875 86.6821 111.318 87.2421C111.761 87.8021 112.343 88.264 113.065 88.6247C113.786 88.9853 114.656 89.1657 115.672 89.1657C116.801 89.1657 117.798 88.8525 118.671 88.2229C119.541 87.5933 120.367 86.7707 121.145 85.7551C121.253 86.8276 121.588 87.6629 122.151 88.264C122.714 88.8651 123.464 89.1657 124.401 89.1657C125.043 89.1657 125.714 88.9474 126.41 88.5044C127.109 88.0647 127.805 87.4889 128.501 86.7802C129.115 86.1574 129.71 85.4662 130.292 84.7088C130.288 84.8145 130.285 84.9186 130.285 85.0211C130.285 86.2518 130.561 87.2484 131.108 88.0109C131.655 88.7734 132.44 89.1531 133.455 89.1531C134.044 89.1531 134.645 88.9917 135.262 88.6722C135.876 88.3494 136.49 87.9223 137.106 87.3876C136.679 88.3241 136.3 89.1878 135.964 89.9756C135.629 90.7666 135.357 91.4658 135.142 92.0828C134.74 92.4023 134.253 92.7187 133.677 93.0256C133.101 93.3356 132.532 93.6203 131.972 93.8893C131.408 94.155 130.845 94.4366 130.285 94.7309C129.722 95.0251 129.219 95.3383 128.779 95.6737C128.34 96.009 127.985 96.3697 127.716 96.7589C127.447 97.1448 127.314 97.5814 127.314 98.0623H127.321V98.3408C127.428 98.8754 127.637 99.35 127.944 99.7645C128.251 100.179 128.627 100.517 129.067 100.786C129.51 101.052 129.997 101.251 130.532 101.388C131.067 101.52 131.617 101.587 132.177 101.587C132.82 101.587 133.462 101.508 134.104 101.346C134.746 101.188 135.341 100.945 135.888 100.625C136.436 100.305 136.932 99.91 137.372 99.4418C137.812 98.9735 138.154 98.4294 138.394 97.8156C138.527 97.496 138.761 96.9582 139.097 96.2115C139.429 95.4617 139.77 94.6992 140.118 93.9241L141.08 91.7569C142.203 91.1969 143.361 90.368 144.551 89.2701C145.741 88.1754 146.883 86.9574 147.981 85.6191C149.075 84.2808 150.1 82.8761 151.049 81.4049C151.999 79.9337 152.796 78.5416 153.438 77.2318C153.489 77.0198 153.517 76.8711 153.517 76.792C153.517 76.4978 153.41 76.2637 153.198 76.0897C152.982 75.9188 152.729 75.8302 152.435 75.8302C152.22 75.8302 152.021 75.8903 151.834 76.0106C151.644 76.1308 151.499 76.3396 151.391 76.6338C151.151 77.2476 150.736 78.0576 150.148 79.0605C149.559 80.0634 148.87 81.1075 148.082 82.1895C147.294 83.2747 146.443 84.344 145.535 85.4008C144.627 86.4575 143.716 87.3465 142.808 88.0679C142.833 87.935 142.874 87.8148 142.928 87.7072C142.982 87.5996 143.054 87.4667 143.149 87.3054C143.241 87.144 143.361 86.9321 143.51 86.6631C143.656 86.3974 143.836 86.0367 144.051 85.5811C144.56 84.4833 145.127 83.2747 145.756 81.949C146.386 80.6266 146.974 79.3294 147.522 78.0576C148.069 76.7889 148.525 75.6056 148.885 74.5078C149.246 73.4131 149.426 72.543 149.426 71.9008C149.426 71.3376 149.312 70.8757 149.085 70.515C148.857 70.1543 148.582 69.8601 148.262 69.6323C147.943 69.4045 147.601 69.2463 147.24 69.1514C146.88 69.0597 146.563 69.0122 146.297 69.0122C145.68 69.0122 145.133 69.1483 144.652 69.414C144.171 69.6829 143.931 69.936 143.931 70.1765C143.931 70.2841 143.956 70.3885 144.01 70.496V70.4549C144.035 70.5087 144.057 70.5498 144.07 70.5751C144.083 70.6036 144.089 70.6574 144.089 70.7365C144.089 71.2996 143.839 72.214 143.346 73.4858C142.852 74.7577 142.257 76.1688 141.561 77.719C141.109 78.5764 140.552 79.5129 139.897 80.5285C139.242 81.5441 138.578 82.4869 137.91 83.3569C137.239 84.227 136.619 84.9547 136.043 85.5431C135.468 86.1316 135.034 86.4259 134.74 86.4259C134.55 86.4259 134.458 86.3468 134.458 86.1854C134.458 85.7836 134.686 85.1413 135.142 84.2586C135.597 83.3759 136.104 82.4268 136.667 81.4112C137.069 80.6867 137.483 79.9305 137.91 79.1427C138.337 78.3518 138.733 77.5577 139.093 76.7541C139.454 75.9536 139.748 75.1848 139.976 74.4476C140.204 73.7105 140.318 73.0492 140.318 72.4608C140.318 71.8185 140.213 71.2838 139.998 70.8567C139.783 70.4296 139.514 70.0942 139.195 69.8538C138.872 69.6133 138.524 69.4393 138.151 69.3318C137.777 69.2242 137.417 69.1704 137.069 69.1704C136.452 69.1704 135.926 69.2843 135.483 69.5121C135.044 69.7399 134.822 69.9993 134.822 70.2936C134.822 70.4264 134.838 70.5119 134.863 70.553C134.889 70.591 134.93 70.6384 134.984 70.6922C135.037 70.7998 135.063 70.8789 135.063 70.9326C135.063 71.3091 134.889 71.9103 134.541 72.7392C134.193 73.5681 133.803 74.4666 133.376 75.4284C133.028 76.1783 132.674 76.9755 132.313 77.8171C132.217 78.0409 132.123 78.2648 132.031 78.4889C131.703 79.067 131.337 79.6759 130.931 80.3134C130.462 81.0505 129.966 81.7782 129.444 82.4995C128.922 83.2209 128.419 83.8758 127.938 84.4643C127.457 85.0527 127.014 85.5273 126.612 85.888C126.21 86.2487 125.888 86.429 125.647 86.429C125.568 86.429 125.527 86.3246 125.527 86.1095C125.527 85.7077 125.66 85.1413 125.929 84.4042C126.198 83.6702 126.543 82.8191 126.973 81.8573C127.403 80.8955 127.893 79.8514 128.441 78.7283C128.991 77.6051 129.561 76.4535 130.149 75.2765C130.874 73.8592 131.592 72.407 132.301 70.9232C133.009 69.4393 133.661 68.0219 134.25 66.671C134.838 65.32 135.316 64.083 135.676 62.9598C136.04 61.8367 136.221 60.9287 136.221 60.2326C136.221 59.6441 136.113 59.1569 135.898 58.7678C135.68 58.3786 135.411 58.0717 135.088 57.8439C134.765 57.6161 134.414 57.4579 134.038 57.363C133.661 57.2681 133.31 57.2207 132.987 57.2207C132.367 57.2207 131.836 57.3346 131.389 57.5624C130.943 57.7902 130.722 58.0496 130.722 58.3438C130.722 58.5305 130.776 58.6665 130.883 58.7456V58.7868C130.883 59.081 130.773 59.5745 130.545 60.2706C130.317 60.9666 130.004 61.7956 129.605 62.7574C129.206 63.7191 128.754 64.7885 128.248 65.9654C127.742 67.1424 127.21 68.3605 126.65 69.6165L125.413 72.4639H125.407V72.2361C125.407 71.5939 125.267 71.0718 124.986 70.67C124.704 70.2682 124.363 69.9487 123.961 69.7082C123.559 69.4678 123.138 69.3064 122.695 69.2273C122.252 69.1482 121.873 69.1071 121.55 69.1071C119.62 69.1071 117.75 69.8158 115.944 71.2332C114.134 72.6506 112.574 74.9254 111.261 78.0544C111.21 78.1828 111.159 78.3127 111.11 78.444C110.756 79.0805 110.362 79.7416 109.926 80.4274C109.458 81.1645 108.964 81.8859 108.442 82.5946C107.92 83.3033 107.411 83.9455 106.917 84.5214C106.421 85.0972 105.975 85.5591 105.573 85.9071C105.171 86.2551 104.864 86.4291 104.649 86.4291C104.462 86.4291 104.367 86.35 104.367 86.1887C104.367 85.7869 104.595 85.1446 105.051 84.2619C105.506 83.3792 106.013 82.4301 106.576 81.4145C106.977 80.69 107.392 79.9338 107.819 79.146C108.246 78.3551 108.642 77.561 109.002 76.7574C109.363 75.9569 109.657 75.1881 109.885 74.4509C110.113 73.7138 110.227 73.0525 110.227 72.4641C110.227 71.8218 110.119 71.2871 109.904 70.86C109.689 70.4329 109.42 70.0975 109.1 69.8571C108.778 69.6166 108.43 69.4426 108.056 69.3351C107.683 69.2275 107.322 69.1737 106.974 69.1737C106.357 69.1737 105.832 69.2876 105.389 69.5154C104.949 69.7432 104.728 70.0026 104.728 70.2968C104.728 70.4297 104.744 70.5151 104.769 70.5563C104.794 70.5942 104.836 70.6417 104.889 70.6955C104.94 70.8031 104.968 70.8822 104.968 70.9359C104.968 71.3377 104.794 71.9389 104.446 72.7425C104.098 73.5429 103.7 74.4541 103.244 75.4697C103.108 75.8177 102.94 76.1974 102.741 76.6118C102.542 77.0263 102.361 77.4059 102.2 77.754C101.745 78.6367 101.191 79.5795 100.536 80.5824C99.881 81.5853 99.2167 82.5218 98.5491 83.3919C97.8815 84.2619 97.2677 84.9833 96.7046 85.5591C96.1414 86.1349 95.7143 86.4228 95.4201 86.4228C95.2334 86.4228 95.1385 86.3437 95.1385 86.1824C95.1385 85.7806 95.3663 85.1383 95.8219 84.2556C96.2775 83.3729 96.7837 82.4237 97.3468 81.4082C97.7486 80.6836 98.1631 79.9275 98.5902 79.1397C99.0173 78.3488 99.4128 77.5546 99.7735 76.751C100.134 75.9506 100.428 75.1818 100.656 74.4446C100.884 73.7075 100.998 73.0462 100.998 72.4577C100.998 71.8155 100.893 71.2808 100.678 70.8537C100.463 70.4266 100.197 70.0912 99.8747 69.8508C99.552 69.6103 99.204 69.4363 98.8307 69.3287C98.4573 69.2211 98.0967 69.1674 97.7486 69.1674C97.1317 69.1674 96.6033 69.2813 96.1636 69.5091C95.7238 69.7369 95.5023 69.9963 95.5023 70.2905C95.5023 70.4234 95.515 70.5088 95.5435 70.5499C95.5688 70.5879 95.6099 70.6354 95.6637 70.6892C95.7143 70.7967 95.7428 70.8758 95.7428 70.9296C95.7428 71.3061 95.5688 71.9072 95.2208 72.7361C94.8727 73.5651 94.4836 74.4636 94.0565 75.4254C93.7796 76.022 93.4987 76.6486 93.2138 77.3037C93.0671 77.511 92.8629 77.7246 92.6011 77.9405C92.2911 78.1968 91.8829 78.4277 91.3767 78.6429C90.8674 78.8548 90.2251 79.0035 89.45 79.0826C89.5291 78.7599 89.5955 78.4341 89.6493 78.0987C89.6999 77.7633 89.7284 77.4754 89.7284 77.235C89.7284 76.7003 89.643 76.2858 89.4689 75.9916C89.2918 75.7005 89.0861 75.4917 88.8457 75.3715C88.6052 75.2513 88.3553 75.1848 88.1022 75.1722C87.8459 75.1595 87.6403 75.1532 87.4789 75.1532C87.1056 75.1532 86.7702 75.2386 86.476 75.4126C86.1818 75.5898 85.9286 75.8144 85.7135 76.096C85.4984 76.3776 85.3402 76.6908 85.2326 77.0388C85.125 77.3868 85.0713 77.7349 85.0713 78.0829C85.0713 78.6176 85.1662 79.0921 85.3528 79.5066C85.5395 79.921 85.8749 80.2627 86.3558 80.5285C86.0362 81.1423 85.6597 81.7972 85.2326 82.4932C84.8055 83.1893 84.372 83.8315 83.9291 84.42C83.4862 85.0084 83.0591 85.4988 82.6446 85.8848C82.2301 86.274 81.86 86.467 81.5404 86.467C81.0848 86.467 80.7526 86.2392 80.5375 85.7836C80.3224 85.3312 80.2148 84.7965 80.2148 84.1795C80.2148 83.455 80.3287 82.6388 80.5565 81.7307C80.7811 80.8227 81.0817 79.8926 81.4582 78.9434C81.8315 77.9943 82.2618 77.0704 82.7427 76.1751C83.2236 75.2797 83.7171 74.4761 84.2265 73.7674C84.7327 73.0587 85.2294 72.4892 85.7103 72.0621C86.1912 71.635 86.631 71.4199 87.0328 71.4199C87.0581 71.4199 87.1246 71.4452 87.2321 71.499C86.9126 71.7647 86.7512 72.1317 86.7512 72.6063C86.7512 73.0524 86.9189 73.4099 87.2543 73.6725C87.5865 73.9351 87.9693 74.068 88.3964 74.068C88.8235 74.068 89.2032 73.913 89.5386 73.6092C89.8739 73.3055 90.0416 72.8468 90.0416 72.2361H90.0543V72.195C90.0005 71.8501 89.9056 71.4863 89.7727 71.1003C89.6366 70.7144 89.431 70.3758 89.1494 70.0848C88.871 69.7905 88.5103 69.5469 88.0674 69.3476C87.6276 69.1482 87.0708 69.0502 86.4032 69.0502C84.7454 69.0502 83.2077 69.5058 81.7904 70.4138C80.373 71.325 79.1486 72.4798 78.1203 73.8845C77.5534 74.6566 77.0563 75.4707 76.6279 76.3274C76.5888 76.3925 76.5536 76.464 76.5225 76.542C76.3437 76.9125 76.1775 77.2907 76.0238 77.6769ZM122.597 71.5021C122.278 71.771 122.116 72.1444 122.116 72.6253C122.116 73.0777 122.284 73.4415 122.613 73.7105C122.948 73.9794 123.331 74.1123 123.758 74.1123C124.189 74.1123 124.549 73.9794 124.844 73.7105C124.549 74.3527 124.28 74.9823 124.04 75.5961C123.796 76.213 123.556 76.7983 123.315 77.3615V77.3204C123.183 77.5608 123.05 77.8203 122.914 78.1018C122.781 78.3834 122.648 78.6587 122.512 78.9244C122.056 79.7818 121.588 80.6582 121.104 81.5536C120.62 82.4489 120.139 83.2715 119.655 84.0213C119.174 84.7712 118.696 85.3786 118.228 85.8469C117.76 86.3151 117.323 86.5492 116.921 86.5492C116.466 86.5492 116.137 86.2898 115.937 85.7678C115.738 85.2457 115.637 84.6383 115.637 83.9422C115.637 83.1671 115.744 82.3224 115.96 81.4143C116.175 80.5063 116.469 79.6616 116.845 78.8865C117.943 76.5326 118.997 74.7134 120.003 73.4289C121.009 72.1444 121.847 71.5021 122.518 71.5021H122.597ZM130.928 99.3057C131.462 99.3057 131.978 98.9988 132.471 98.3819C132.968 97.7649 133.535 96.6165 134.177 94.9302L132.933 95.5724C132.532 95.7591 132.139 95.9458 131.75 96.1356C131.364 96.3223 131.007 96.5152 130.687 96.7177C130.368 96.9202 130.105 97.1259 129.906 97.341C129.706 97.5561 129.605 97.7808 129.605 98.0244C129.605 98.3439 129.732 98.6382 129.985 98.9071C130.238 99.1728 130.551 99.3057 130.928 99.3057ZM220.622 58.9418C219.938 59.0747 219.435 59.2771 219.116 59.5429H219.106V59.5777C217.66 60.8337 216.056 62.3049 214.291 63.9912C212.525 65.6744 210.725 67.4682 208.893 69.3665C207.062 71.2648 205.271 73.2169 203.518 75.2228C201.765 77.2286 200.18 79.1838 198.763 81.0821C198.443 80.307 198.133 79.6521 197.839 79.1174C197.545 78.5827 197.197 77.9278 196.795 77.1527V77.1938L195.83 75.3082C195.59 74.8273 195.34 74.3527 195.086 73.8845C194.833 73.4162 194.583 72.9416 194.343 72.4607C195.172 70.186 195.754 68.2529 196.089 66.6615C196.425 65.0732 196.592 63.7286 196.592 62.6308C196.592 61.1058 196.305 59.8941 195.729 58.9987C195.153 58.1034 194.384 57.6541 193.419 57.6541C193.204 57.6003 192.976 57.575 192.736 57.575C191.853 57.575 191.008 57.7965 190.205 58.2362C189.401 58.6792 188.696 59.2803 188.094 60.0428C187.493 60.8053 187.009 61.7228 186.649 62.7921C186.288 63.8647 186.108 65.0131 186.108 66.2438C186.108 67.8226 186.462 69.4678 187.171 71.1794C187.882 72.891 188.813 74.8304 189.964 76.9976C189.699 77.507 189.309 78.2505 188.8 79.225C188.294 80.2026 187.671 81.2783 186.933 82.4552C186.196 83.6322 185.374 84.8281 184.462 86.0462C183.551 87.2642 182.58 88.3652 181.549 89.3555C180.517 90.3458 179.438 91.1621 178.315 91.8043C177.192 92.4466 176.053 92.7661 174.901 92.7661C174.123 92.7661 173.44 92.6047 172.851 92.2852C172.263 91.9625 171.766 91.5354 171.364 91.0007C170.962 90.466 170.659 89.8364 170.459 89.1151C170.26 88.3937 170.159 87.6439 170.159 86.8687C170.159 85.8785 170.339 84.8819 170.7 83.8789C171.064 82.876 171.605 81.949 172.326 81.0916C173.051 80.2342 173.965 79.5002 175.075 78.8833C176.183 78.2695 177.486 77.8677 178.986 77.681C179.28 77.6273 179.521 77.507 179.707 77.3204C179.894 77.1337 180.014 76.8933 180.068 76.599C180.068 76.1972 179.888 75.8903 179.527 75.6752C179.166 75.4632 178.736 75.3019 178.242 75.1943C177.746 75.0867 177.239 75.0266 176.717 75.0139C176.195 75.0013 175.762 74.995 175.414 74.995C173.566 74.995 171.858 75.2955 170.282 75.8966C168.707 76.5009 167.349 77.3362 166.204 78.4055C165.062 79.4749 164.163 80.7531 163.512 82.2369C162.86 83.7207 162.534 85.3596 162.534 87.1503C162.559 88.4348 162.793 89.6307 163.236 90.7412C163.676 91.8517 164.306 92.8072 165.122 93.6108C165.935 94.4113 166.906 95.0472 168.03 95.5154C169.153 95.9837 170.409 96.2178 171.801 96.2178C175.306 96.2178 178.688 94.8669 181.954 92.165C185.219 89.4631 188.348 85.2773 191.344 79.6078C191.986 80.8638 192.612 82.123 193.229 83.3791C193.843 84.6383 194.34 85.8658 194.713 87.0712C193.59 88.9442 192.78 90.6274 192.287 92.127C191.79 93.6235 191.543 94.8827 191.543 95.8983C191.543 97.0214 191.85 97.8693 192.467 98.4451C193.081 99.021 193.951 99.3089 195.074 99.3089C195.928 99.3089 196.738 99.0811 197.5 98.6255C198.263 98.1699 198.931 97.5435 199.506 96.7398C200.082 95.9362 200.535 94.9997 200.87 93.9304C201.205 92.8578 201.373 91.7094 201.373 90.4787C201.373 89.5422 201.227 88.4696 200.933 87.2674C200.639 86.0651 200.266 84.8471 199.81 83.6164C200.585 82.547 201.455 81.4143 202.417 80.2247C203.379 79.0351 204.382 77.8234 205.426 76.5927C206.47 75.3651 207.552 74.1407 208.675 72.9226C209.798 71.7077 210.909 70.5213 212.007 69.3729C211.469 70.6574 210.928 72.1633 210.38 73.8876C209.83 75.6119 209.343 77.4374 208.916 79.3642C208.488 81.291 208.201 83.822 208.201 85.695C208.201 87.8052 208.375 89.8111 208.723 91.7125C209.071 93.6108 209.653 95.2782 210.469 96.7082C211.285 98.1383 212.355 99.2772 213.68 100.119C215.006 100.96 216.645 101.381 218.597 101.381C218.866 101.381 219.154 101.375 219.461 101.362C219.767 101.35 220.055 101.302 220.324 101.223C220.59 101.141 220.811 101.008 220.985 100.821C221.156 100.635 221.245 100.353 221.245 99.9796C221.245 99.7391 221.159 99.524 220.985 99.3373C220.811 99.1507 220.562 99.0304 220.242 98.9767C219.388 98.8691 218.638 98.4958 217.996 97.8535C217.353 97.2113 216.819 96.3697 216.392 95.3256C215.964 94.2847 215.648 93.0603 215.449 91.6556C215.249 90.2509 215.148 88.7449 215.148 87.1408C215.148 85.3754 215.329 83.0722 215.784 81.0916C216.237 79.1111 216.793 77.159 217.448 75.2322C218.106 73.3055 218.859 71.48 219.717 69.7557C220.571 68.0314 221.514 66.4527 222.545 65.0226C223.573 63.5894 224.693 62.3808 225.896 61.3906C226.351 61.0172 226.579 60.6439 226.579 60.2674C226.579 59.7327 226.19 59.3436 225.415 59.1031C224.64 58.8627 223.77 58.7425 222.808 58.7425C222.033 58.7425 221.305 58.8089 220.622 58.9418ZM233.881 72.2361C233.881 72.8468 233.713 73.3055 233.378 73.6092C233.043 73.913 232.663 74.068 232.236 74.068C231.809 74.068 231.426 73.9351 231.094 73.6725C230.758 73.4099 230.591 73.0524 230.591 72.6063C230.591 72.1317 230.752 71.7647 231.072 71.499C230.964 71.4452 230.898 71.4199 230.872 71.4199C230.471 71.4199 230.031 71.635 229.55 72.0621C229.069 72.4892 228.572 73.0587 228.066 73.7674C227.557 74.4761 227.063 75.2797 226.582 76.1751C226.101 77.0704 225.674 77.9943 225.298 78.9434C224.921 79.8926 224.621 80.8227 224.396 81.7307C224.168 82.6388 224.054 83.455 224.054 84.1795C224.054 84.7965 224.162 85.3312 224.374 85.7836C224.589 86.2392 224.921 86.467 225.377 86.467C225.696 86.467 226.067 86.274 226.481 85.8848C226.895 85.4988 227.323 85.0084 227.766 84.42C228.205 83.8315 228.642 83.1893 229.069 82.4932C229.496 81.7972 229.873 81.1423 230.192 80.5285C229.711 80.2627 229.376 79.921 229.189 79.5066C229.003 79.0921 228.908 78.6176 228.908 78.0829C228.908 77.7349 228.961 77.3868 229.069 77.0388C229.177 76.6908 229.335 76.3776 229.55 76.096C229.762 75.8144 230.018 75.5898 230.312 75.4126C230.607 75.2386 230.939 75.1532 231.315 75.1532C231.477 75.1532 231.682 75.1595 231.939 75.1722C232.192 75.1848 232.438 75.2513 232.682 75.3715C232.923 75.4917 233.128 75.7005 233.305 75.9916C233.479 76.2858 233.565 76.7003 233.565 77.235C233.565 77.4754 233.536 77.7633 233.486 78.0987C233.432 78.4341 233.365 78.7599 233.286 79.0826C234.062 79.0035 234.704 78.8548 235.213 78.6429C235.719 78.4277 236.127 78.1968 236.438 77.9405C236.742 77.6893 236.969 77.4412 237.118 77.2025C237.54 76.1657 237.996 75.0834 238.488 73.9509C238.792 73.2485 239.097 72.5462 239.402 71.8438L239.406 71.8349L239.409 71.8259C239.717 71.1169 240.025 70.4078 240.332 69.6988L242.098 65.687C241.247 65.687 241.097 65.695 240.781 65.7119L240.78 65.7119L240.78 65.712L240.779 65.712L240.778 65.7121C240.608 65.7212 240.389 65.7328 239.987 65.7471C238.839 65.7883 237.839 65.8832 236.998 66.0287C236.82 66.06 236.66 66.0861 236.508 66.1108L236.505 66.1114L236.503 66.1116L236.502 66.1118C235.936 66.2039 235.488 66.2766 234.742 66.5254C234.185 66.7121 232.616 67.386 232.587 67.8954L234.179 67.9302C234.153 68.3067 234.046 68.5914 233.859 68.7939C233.672 68.9932 233.445 69.0945 233.176 69.0945C232.856 69.0945 232.527 68.8951 232.192 68.4933C231.856 68.0915 231.689 67.4778 231.689 66.6488C231.689 65.7124 231.888 64.9372 232.29 64.3203C232.692 63.7065 233.245 63.2224 233.954 62.8744C234.663 62.5264 235.504 62.2859 236.482 62.1531C237.459 62.0202 238.507 61.9537 239.63 61.9537C240.19 61.9537 240.653 61.9905 241.162 62.031L241.162 62.031C241.429 62.0522 241.708 62.0745 242.022 62.0929C242.512 62.122 242.629 62.1372 242.788 62.158C242.924 62.1757 243.091 62.1975 243.547 62.2353C243.841 61.4855 244.088 60.7895 244.29 60.1472C244.489 59.505 244.591 59.0494 244.591 58.7836C244.591 58.7298 244.578 58.6919 244.55 58.6634C244.47 58.6096 244.429 58.502 244.429 58.3438C244.429 58.0496 244.651 57.7902 245.097 57.5624C245.54 57.3346 246.075 57.2207 246.695 57.2207C247.017 57.2207 247.369 57.2681 247.745 57.363C248.122 57.4579 248.473 57.6161 248.795 57.8439C249.118 58.0717 249.387 58.3723 249.605 58.7456C249.82 59.1189 249.928 59.603 249.928 60.1915C249.928 60.8875 249.792 61.7165 249.523 62.6783H250.602C250.843 62.6783 251.082 62.6767 251.32 62.6737C251.386 62.5552 251.452 62.4406 251.516 62.3303C251.662 62.0772 251.738 61.9095 251.738 61.8273C251.738 61.4002 252.073 61.185 252.741 61.185C253.035 61.185 253.396 61.2514 253.823 61.3843C254.25 61.5172 254.658 61.7134 255.047 61.9665C255.243 62.0948 255.424 62.2427 255.59 62.4097C255.715 62.3935 255.836 62.3765 255.955 62.3587C256.673 62.2511 257.252 62.1183 257.692 61.9569C258.132 61.7955 258.353 61.5962 258.353 61.3558C258.353 60.7135 258.635 60.394 259.195 60.394C259.489 60.394 259.821 60.5617 260.198 60.8939C260.571 61.2292 260.761 61.6089 260.761 62.036C260.761 62.4916 260.419 62.9314 259.739 63.3585C259.056 63.7856 258.148 64.1621 257.012 64.4816C256.813 64.5376 256.608 64.592 256.398 64.6449C256.363 64.783 256.301 64.9406 256.211 65.1176C256.063 65.4119 255.911 65.7061 255.75 66.0003C255.563 66.2946 255.395 66.6015 255.25 66.9242C255.101 67.2469 255.025 67.4747 255.025 67.6075C255.025 67.8227 254.924 67.9872 254.724 68.1106C254.525 68.2308 254.262 68.2909 253.943 68.2909C253.623 68.2909 253.247 68.2245 252.82 68.0916C252.393 67.9587 251.985 67.7657 251.595 67.5095C251.206 67.2564 250.874 66.9273 250.592 66.5255C250.4 66.251 250.274 65.9395 250.214 65.59C249.607 65.6341 248.991 65.6664 248.365 65.687C247.777 67.1297 247.074 68.6705 246.258 70.2999C245.442 71.9324 244.648 73.5491 243.869 75.1532C243.252 76.3554 242.673 77.5355 242.123 78.684C241.576 79.8356 241.079 80.8923 240.639 81.8541C240.199 82.8159 239.851 83.667 239.595 84.401C239.339 85.1382 239.212 85.7045 239.212 86.1063C239.212 86.3214 239.253 86.4258 239.332 86.4258C239.573 86.4258 239.892 86.2455 240.294 85.8848C240.696 85.5241 241.136 85.0496 241.617 84.4611C242.098 83.8726 242.601 83.2177 243.123 82.4964C243.645 81.775 244.138 81.0473 244.606 80.3102C245.075 79.5762 245.489 78.8801 245.85 78.2252C245.921 78.0968 245.987 77.9721 246.05 77.8513L246.065 77.8172C246.426 76.9756 246.78 76.1783 247.128 75.4285C247.555 74.4667 247.944 73.5682 248.292 72.7393C248.64 71.9103 248.814 71.3092 248.814 70.9327C248.814 70.8789 248.789 70.7998 248.735 70.6923C248.682 70.6385 248.64 70.591 248.615 70.5531C248.59 70.5119 248.574 70.4265 248.574 70.2936C248.574 69.9994 248.795 69.74 249.235 69.5122C249.678 69.2844 250.203 69.1705 250.82 69.1705C251.168 69.1705 251.529 69.2243 251.902 69.3318C252.276 69.4394 252.624 69.6134 252.946 69.8539C253.266 70.0943 253.535 70.4297 253.75 70.8568C253.965 71.2839 254.069 71.8186 254.069 72.4608C254.069 73.0493 253.956 73.7105 253.728 74.4477C253.5 75.1849 253.206 75.9537 252.845 76.7541C252.484 77.5578 252.089 78.3519 251.662 79.1428C251.235 79.9306 250.82 80.6867 250.418 81.4113C249.855 82.4268 249.349 83.376 248.894 84.2587C248.438 85.1414 248.21 85.7837 248.21 86.1855C248.21 86.3468 248.302 86.4259 248.492 86.4259C248.707 86.4259 249.014 86.2519 249.416 85.9039C249.817 85.5559 250.263 85.0939 250.76 84.5181C251.254 83.9423 251.763 83.3001 252.285 82.5914C252.807 81.8827 253.301 81.1613 253.769 80.4242C254.237 79.687 254.658 78.9783 255.031 78.2981C255.172 78.0409 255.299 77.7984 255.414 77.5703C255.949 76.2494 256.633 75.0214 257.467 73.8845C258.496 72.4798 259.72 71.325 261.137 70.4138C262.555 69.5058 264.092 69.0502 265.75 69.0502C266.418 69.0502 266.975 69.1482 267.414 69.3476C267.857 69.5469 268.218 69.7905 268.496 70.0848C268.778 70.3758 268.984 70.7144 269.12 71.1003C269.253 71.4863 269.348 71.8501 269.401 72.195V72.2361H269.392C269.392 72.8468 269.224 73.3055 268.889 73.6092C268.553 73.913 268.174 74.068 267.747 74.068C267.319 74.068 266.937 73.9351 266.605 73.6725C266.269 73.4099 266.101 73.0524 266.101 72.6063C266.101 72.1317 266.263 71.7647 266.582 71.499C266.475 71.4452 266.408 71.4199 266.383 71.4199C265.981 71.4199 265.541 71.635 265.061 72.0621C264.58 72.4892 264.083 73.0587 263.577 73.7674C263.067 74.4761 262.574 75.2797 262.093 76.1751C261.612 77.0704 261.185 77.9943 260.808 78.9434C260.432 79.8926 260.131 80.8227 259.907 81.7307C259.679 82.6388 259.565 83.455 259.565 84.1795C259.565 84.7965 259.673 85.3312 259.885 85.7836C260.1 86.2392 260.432 86.467 260.887 86.467C261.207 86.467 261.577 86.274 261.992 85.8848C262.406 85.4988 262.833 85.0084 263.276 84.42C263.716 83.8315 264.153 83.1893 264.58 82.4932C265.007 81.7972 265.383 81.1423 265.703 80.5285C265.222 80.2627 264.887 79.921 264.7 79.5066C264.513 79.0921 264.418 78.6176 264.418 78.0829C264.418 77.7349 264.472 77.3868 264.58 77.0388C264.687 76.6908 264.845 76.3776 265.061 76.096C265.273 75.8144 265.529 75.5898 265.823 75.4126C266.117 75.2386 266.449 75.1532 266.826 75.1532C266.987 75.1532 267.193 75.1595 267.449 75.1722C267.702 75.1848 267.949 75.2513 268.193 75.3715C268.433 75.4917 268.639 75.7005 268.816 75.9916C268.99 76.2858 269.075 76.7003 269.075 77.235C269.075 77.4754 269.047 77.7633 268.996 78.0987C268.943 78.4341 268.876 78.7599 268.797 79.0826C269.572 79.0035 270.214 78.8548 270.724 78.6429C271.23 78.4277 271.638 78.1968 271.948 77.9405C272.22 77.7161 272.43 77.4943 272.578 77.2793C272.708 77.009 272.838 76.7422 272.97 76.4788C273.533 75.2481 274.027 74.1313 274.454 73.1283C274.881 72.1254 275.096 71.3977 275.096 70.9422C275.096 70.8884 275.071 70.8093 275.017 70.7017C274.963 70.6479 274.922 70.6005 274.897 70.5625C274.871 70.5214 274.856 70.4359 274.856 70.3031C274.856 70.0088 275.084 69.7494 275.539 69.5216C275.995 69.2938 276.529 69.1799 277.143 69.1799C277.463 69.1799 277.811 69.2274 278.187 69.3191C278.561 69.414 278.909 69.5785 279.231 69.8222C279.551 70.0626 279.82 70.3917 280.035 70.8061C280.25 71.2206 280.354 71.7363 280.354 72.35V72.5494C281.291 71.6129 282.227 70.8188 283.164 70.1607C284.1 69.5058 285.024 69.1767 285.932 69.1767C286.948 69.1767 287.751 69.5437 288.34 70.2809C288.928 71.0181 289.223 72.0273 289.223 73.3119C289.223 73.527 289.216 73.7136 289.204 73.8718C289.183 73.984 289.168 74.1042 289.152 74.2312L289.152 74.2316C289.145 74.2835 289.138 74.3366 289.131 74.3907C289.077 75.0076 288.957 75.6499 288.77 76.3175C288.584 76.985 288.349 77.6558 288.068 78.3233C287.786 78.9909 287.486 79.6616 287.166 80.3292C286.843 80.9968 286.536 81.6264 286.242 82.2148C285.815 83.0437 285.445 83.7936 285.138 84.4611C284.831 85.1287 284.676 85.6507 284.676 86.0272C284.676 86.2961 284.838 86.429 285.157 86.429C285.372 86.429 285.685 86.2424 286.1 85.8659C286.514 85.4925 286.964 85.0116 287.445 84.42C287.925 83.8315 288.428 83.1766 288.95 82.4553C289.473 81.7339 289.96 81.0031 290.415 80.2691C290.871 79.5351 291.279 78.839 291.64 78.181C292 77.5261 292.26 76.985 292.421 76.5548C292.608 76.0739 292.943 75.8334 293.424 75.8334C293.718 75.8334 293.978 75.922 294.206 76.0928C294.433 76.2668 294.547 76.501 294.547 76.7952C294.547 76.849 294.535 76.9217 294.506 77.0167C294.478 77.1116 294.452 77.1844 294.427 77.2381C294.158 77.7728 293.807 78.4372 293.364 79.225C292.924 80.0128 292.415 80.8512 291.839 81.7339C291.263 82.6166 290.649 83.4993 289.995 84.382C289.34 85.2647 288.663 86.062 287.97 86.7707C287.274 87.4794 286.578 88.0552 285.885 88.495C285.189 88.9379 284.521 89.1562 283.879 89.1562C283.344 89.1562 282.876 89.0423 282.474 88.8145C282.072 88.5867 281.737 88.2735 281.471 87.8717C281.202 87.4699 280.997 87.0017 280.851 86.467C280.702 85.9323 280.63 85.3691 280.63 84.7807C280.63 83.9518 280.731 83.1165 280.93 82.2718C281.13 81.4302 281.386 80.6139 281.693 79.823C282 79.0352 282.341 78.2727 282.715 77.5355C283.088 76.8015 283.436 76.1118 283.759 75.4696C284.132 74.7198 284.461 74.0648 284.743 73.5048C285.024 72.9417 285.163 72.5146 285.163 72.2203C285.163 72.0052 285.015 71.9008 284.724 71.9008C284.483 71.9008 284.107 72.0938 283.6 72.4829C283.091 72.8721 282.531 73.3783 281.914 74.0079C281.297 74.6375 280.671 75.3399 280.029 76.115C279.386 76.8901 278.81 77.6652 278.304 78.4435L278.345 78.4024C278.105 78.9118 277.849 79.418 277.583 79.9274C277.314 80.4367 277.048 80.9303 276.779 81.4112C276.083 82.6419 275.488 83.7777 274.995 84.8218C274.498 85.8659 274.251 86.6821 274.251 87.2706C274.251 87.3782 274.264 87.4668 274.293 87.53L274.3 87.5494L274.3 87.5497C274.323 87.6108 274.349 87.6773 274.372 87.7515C274.397 87.8053 274.413 87.9002 274.413 88.0331C274.413 88.3526 274.226 88.6342 273.853 88.8747C273.476 89.1151 273.037 89.2353 272.53 89.2353C272.29 89.2353 272.002 89.1815 271.667 89.074C271.331 88.9664 271.018 88.7861 270.724 88.533C270.43 88.2798 270.176 87.9382 269.961 87.511C269.746 87.0839 269.642 86.5492 269.642 85.907C269.642 85.3185 269.743 84.651 269.942 83.9011C270.142 83.1513 270.404 82.3635 270.724 81.5346C270.853 81.2001 270.988 80.8625 271.129 80.5216C270.831 80.6155 270.523 80.6978 270.205 80.7689C269.484 80.9303 268.734 81.022 267.959 81.0505C267.585 81.8541 267.117 82.721 266.554 83.6575C265.991 84.594 265.342 85.4767 264.608 86.3056C263.871 87.1345 263.064 87.8242 262.181 88.3716C261.299 88.9189 260.337 89.1942 259.293 89.1942C258.489 89.1942 257.768 89.0391 257.126 88.7323C256.483 88.4254 255.949 88.0046 255.522 87.4699C255.095 86.9352 254.765 86.3119 254.538 85.6032C254.314 84.906 254.2 84.1752 254.196 83.4136C254.01 83.6747 253.819 83.9364 253.623 84.1986C252.956 85.0939 252.266 85.9102 251.557 86.6474C250.849 87.3845 250.134 87.9857 249.412 88.4539C248.691 88.9222 247.995 89.1563 247.327 89.1563C246.283 89.1563 245.477 88.7893 244.901 88.0521C244.325 87.3181 244.037 86.3057 244.037 85.0212C244.037 84.8823 244.041 84.7404 244.049 84.5956C243.443 85.3962 242.818 86.1242 242.18 86.777C241.484 87.4857 240.788 88.0615 240.092 88.5013C239.396 88.9442 238.728 89.1625 238.086 89.1625C237.042 89.1625 236.235 88.7955 235.659 88.0584C235.083 87.3244 234.796 86.3119 234.796 85.0274C234.796 84.8407 234.802 84.6604 234.815 84.4864C234.827 84.3124 234.849 84.1321 234.875 83.9454C234.954 83.3031 235.169 82.4679 235.517 81.4365C235.625 81.1163 235.741 80.7841 235.865 80.4401C235.492 80.5686 235.102 80.6779 234.694 80.7689C233.973 80.9303 233.223 81.022 232.448 81.0505C232.075 81.8541 231.606 82.721 231.043 83.6575C230.48 84.594 229.831 85.4767 229.097 86.3056C228.36 87.1345 227.554 87.8242 226.671 88.3716C225.788 88.9189 224.826 89.1942 223.782 89.1942C222.979 89.1942 222.257 89.0391 221.615 88.7323C220.973 88.4254 220.438 88.0046 220.011 87.4699C219.584 86.9352 219.255 86.3119 219.027 85.6032C218.799 84.8945 218.685 84.1511 218.685 83.3759C218.685 81.8257 218.973 80.2058 219.549 78.5195C220.125 76.8331 220.925 75.2892 221.957 73.8845C222.985 72.4798 224.209 71.325 225.627 70.4138C227.044 69.5058 228.582 69.0502 230.24 69.0502C230.907 69.0502 231.464 69.1482 231.904 69.3476C232.347 69.5469 232.707 69.7905 232.986 70.0848C233.267 70.3758 233.473 70.7144 233.609 71.1003C233.742 71.4863 233.837 71.8501 233.891 72.195V72.2361H233.881Z" fill="white"/>
</svg>
