<svg width="249" height="137" viewBox="0 0 249 137" fill="none" xmlns="http://www.w3.org/2000/svg">
<g filter="url(#filter0_d_745_11)">
<path fill-rule="evenodd" clip-rule="evenodd" d="M223.989 114.794C228.31 117.302 232.411 120.13 236.19 123.409C236.262 123.471 236.339 123.529 236.416 123.587C236.652 123.765 236.893 123.946 237 124.257C236.669 124.351 236.45 124.179 236.238 124.013C236.169 123.96 236.102 123.907 236.031 123.864C225.72 117.52 214.613 113.243 202.761 110.772C195.809 109.323 188.794 108.44 181.72 108.044C172.237 107.515 162.757 107.761 153.286 108.436C139.603 109.412 126.021 111.27 112.444 113.172C111.417 113.317 110.385 113.447 109.355 113.578C108.873 113.639 108.391 113.699 107.911 113.762C96.5214 115.403 85.1265 117.014 73.6358 117.79C73.4687 117.802 73.3017 117.79 73.1355 117.78C73.0611 117.774 72.987 117.769 72.9132 117.766C70.461 118.082 67.9944 118.116 65.5306 118.149C65.151 118.154 64.7715 118.159 64.3921 118.165C59.078 118.25 53.7638 118.073 48.5149 117.128C38.8049 115.376 30.5714 110.845 23.887 103.622C16.4292 95.572 12.4345 85.9729 12.0334 75.033C11.6782 65.3568 14.1479 56.3452 19.7763 48.3872C28.382 36.2195 40.1896 29.8469 55.1171 29.349C59.2133 29.2136 63.2297 29.7767 67.1737 30.828C67.8818 31.0164 68.2539 30.8763 68.7155 30.3615C74.9069 23.4645 82.3118 18.2905 91.0646 15.231C106.021 10.0063 120.579 11.1397 134.617 18.4742C137.321 19.8903 139.878 21.5722 142.171 23.6143C145.601 26.205 148.459 29.3514 151.046 32.7588C152.126 34.1822 153.066 35.683 153.873 37.2852L153.635 37.0305C151.801 35.0666 149.976 33.1114 147.989 31.3161C141.087 25.0837 133.111 20.9729 124.001 19.0662C116.173 17.4302 108.397 17.6549 100.716 19.813C91.251 22.4737 83.2803 27.5389 76.8572 35.0209C75.151 37.0122 73.6648 39.1581 72.2535 41.3548C71.7943 42.0653 71.3932 42.1934 70.5981 41.9252C67.0504 40.7289 63.4569 39.7623 59.6749 39.5641C50.743 39.0977 42.8068 41.6738 35.9798 47.4036C29.3582 52.9643 25.4965 60.1272 24.3703 68.7159C22.0527 86.406 34.8319 102.954 52.524 105.248C55.8056 105.675 59.1011 105.814 62.3991 105.953L62.6329 105.963C71.3279 106.002 79.9867 105.379 88.6333 104.55C88.8197 104.532 89.0099 104.548 89.1993 104.564C89.291 104.572 89.3819 104.58 89.472 104.584C92.0553 104.149 94.663 103.914 97.27 103.679C98.4623 103.571 99.6547 103.463 100.845 103.336L101.285 103.29C112.289 102.119 123.3 100.947 134.349 100.244C142.896 99.7021 151.449 99.3927 160.018 99.5669C167.754 99.7265 175.455 100.255 183.107 101.36C197.517 103.44 211.311 107.433 223.989 114.794ZM81.5602 105.671V105.676C81.5694 105.673 81.58 105.668 81.5915 105.664C81.5991 105.661 81.6075 105.657 81.6152 105.654C81.6083 105.654 81.6014 105.655 81.5953 105.655C81.5884 105.656 81.5816 105.657 81.5747 105.657C81.5709 105.658 81.5678 105.662 81.5648 105.666C81.5632 105.668 81.5617 105.669 81.5602 105.671ZM70.0697 71.3324C70.0025 71.4648 69.9289 71.6036 69.8489 71.7487C69.5734 72.249 69.2569 72.7807 68.8992 73.3413C68.5415 73.9044 68.1645 74.4602 67.7658 75.0112C67.3671 75.5622 66.9828 76.0624 66.6154 76.512C66.2481 76.9615 65.9098 77.324 65.6053 77.5994C65.3008 77.8749 65.0543 78.0127 64.8706 78.0127C64.8102 78.0127 64.7788 77.9329 64.7788 77.7686C64.7788 77.4617 64.8803 77.0291 65.0857 76.466C65.2911 75.9054 65.557 75.2553 65.8856 74.5206C66.2119 73.786 66.5864 72.9885 67.007 72.1306C67.4275 71.2727 67.8624 70.393 68.3144 69.4941C68.8678 68.4114 69.4163 67.3022 69.96 66.1688C70.5014 65.0354 70.9992 63.9527 71.4511 62.9208C71.903 61.8889 72.2655 60.944 72.5434 60.0861C72.8214 59.2282 72.9591 58.5346 72.9591 58.003C72.9591 57.5535 72.877 57.1813 72.7126 56.884C72.5459 56.5868 72.3405 56.3524 72.094 56.1784C71.8475 56.0044 71.5792 55.8836 71.2916 55.8111C71.0041 55.7386 70.7358 55.7023 70.4893 55.7023C70.0156 55.7023 69.6097 55.7893 69.2689 55.9633C68.9282 56.1373 68.759 56.3355 68.759 56.5603C68.759 56.7028 68.8001 56.8068 68.8823 56.8672V56.8986C68.8823 57.1451 68.7953 57.5269 68.6213 58.0489C68.4473 58.5709 68.2104 59.1943 67.9156 59.9194C67.6208 60.6443 67.2824 61.4419 66.9055 62.3094C66.5284 63.1794 66.1345 64.0711 65.7261 64.9919C65.2767 66.0141 64.8223 67.0654 64.3631 68.148C64.0056 68.9928 63.6701 69.8113 63.3555 70.6045C63.3159 70.6586 63.2797 70.7186 63.2467 70.7846V70.7532C62.164 72.7976 61.0041 74.7068 59.7692 76.4855C58.5342 78.2617 57.2872 79.8107 56.0306 81.1278C54.7764 82.4447 53.539 83.4813 52.3235 84.2382C51.108 84.9921 49.9793 85.3718 48.9378 85.3718C48.3022 85.3718 47.7271 85.2335 47.2051 84.9585C46.6831 84.6828 46.2384 84.2886 45.8711 83.7792C45.5038 83.2666 45.221 82.6601 45.0277 81.9544C44.8344 81.251 44.7377 80.468 44.7377 79.6101C44.7377 78.9577 44.844 78.1045 45.0591 77.0509C45.2742 75.9973 45.6004 74.8349 46.0379 73.5564C46.4752 72.2781 47.0408 70.9344 47.7343 69.5255C48.4279 68.1166 49.2519 66.7368 50.2114 65.3883C50.8228 64.5303 51.4487 63.7522 52.0915 63.0587C52.7343 62.3627 53.3457 61.7657 53.9258 61.2655C54.5057 60.7652 55.0398 60.3762 55.5303 60.1006C56.0185 59.8252 56.4269 59.6874 56.7532 59.6874C57.0987 59.6874 57.3332 59.8663 57.4564 60.2239C57.5796 60.5816 57.6401 60.9852 57.6401 61.4347C57.6401 61.9228 57.5724 62.4545 57.4419 63.0272C57.3115 63.5999 57.1229 64.163 56.8813 64.714C56.6396 65.265 56.3448 65.7822 56.0016 66.2607C55.6584 66.7416 55.2742 67.133 54.8489 67.44C54.728 67.5439 54.6314 67.6454 54.5613 67.7469C54.4912 67.8508 54.4549 67.9813 54.4549 68.1457C54.4549 68.3704 54.5468 68.5951 54.7305 68.8199C54.9142 69.0446 55.1437 69.25 55.4192 69.4337C55.6947 69.6173 55.9992 69.7672 56.3375 69.8783C56.6734 69.9919 56.9949 70.0475 57.3018 70.0475C57.5048 70.0475 57.7005 70.0282 57.8842 69.9871C58.0678 69.946 58.2322 69.8542 58.3747 69.7116V69.743C59.3148 68.9262 59.9891 67.9692 60.3974 66.8769C60.8059 65.7846 61.0113 64.6875 61.0113 63.583C61.0113 62.5004 60.859 61.5555 60.5521 60.7483C60.2452 59.9411 59.832 59.2669 59.31 58.7256C58.788 58.1842 58.1911 57.7807 57.5169 57.5149C56.8426 57.249 56.1369 57.1161 55.4023 57.1161C54.8295 57.1161 54.2616 57.1813 53.701 57.3143C53.1379 57.4472 52.6062 57.6163 52.106 57.8194C51.6058 58.0248 51.1514 58.2496 50.743 58.4936C50.3346 58.7376 49.9866 58.9841 49.7014 59.2283C48.3941 60.3109 47.2244 61.4395 46.1925 62.614C45.1606 63.7884 44.2351 65.0451 43.4182 66.3839C42.6014 67.7227 41.8764 69.1437 41.2433 70.6445C40.61 72.1452 40.0373 73.7547 39.5275 75.4705C39.3631 76.0843 39.2302 76.7392 39.1287 77.4328C39.0271 78.1263 38.9764 78.803 38.9764 79.4555C38.9764 80.497 39.1263 81.5289 39.4211 82.5509C39.7183 83.5737 40.1775 84.4872 40.801 85.2938C41.4245 86.1012 42.2172 86.7612 43.1765 87.2707C44.136 87.7809 45.279 88.0368 46.6081 88.0368C48.2032 88.0368 49.8005 87.648 51.4052 86.8719C53.0074 86.0966 54.5855 84.9868 56.1394 83.547C57.6932 82.1064 59.2061 80.3689 60.6754 78.3366C60.9246 77.9919 61.1717 77.6403 61.4169 77.2817C61.4628 78.1033 61.6796 78.763 62.0673 79.2573C62.5071 79.8204 63.1234 80.1007 63.9209 80.1007C64.4308 80.1007 64.9625 79.9219 65.5135 79.5642C66.0668 79.2065 66.613 78.7473 67.1543 78.1843C67.6957 77.6212 68.2225 76.9977 68.7324 76.3138C68.8826 76.1124 69.0292 75.9113 69.1723 75.7108C69.1747 76.2937 69.2617 76.8532 69.4333 77.3868C69.6073 77.9281 69.8586 78.4042 70.1848 78.8126C70.5111 79.221 70.9195 79.5425 71.41 79.7769C71.9006 80.0112 72.4517 80.1297 73.0655 80.1297C73.8629 80.1297 74.5976 79.9194 75.2718 79.5014C75.9461 79.0833 76.5623 78.5564 77.1254 77.9233C77.6861 77.2901 78.1815 76.6159 78.6116 75.9006C79.0418 75.1852 79.3993 74.5231 79.685 73.9093C80.2769 73.8875 80.8498 73.8174 81.4006 73.6942C81.6878 73.6298 81.9643 73.5536 82.2301 73.4649C82.0101 74.074 81.8329 74.67 81.6977 75.253C81.5548 75.8668 81.4823 76.4299 81.4823 76.9398C81.4823 77.921 81.7023 78.6943 82.1422 79.255C82.5822 79.8181 83.1986 80.0984 83.9961 80.0984C84.7087 80.0984 85.4649 79.7673 86.2624 79.1027C87.0575 78.4381 87.8145 77.6455 88.5294 76.7272C88.5294 76.7489 88.5248 76.7586 88.5149 76.7586C88.505 76.7586 88.5004 76.7707 88.5004 76.79C88.5226 76.79 88.5317 76.8408 88.5317 76.9422C88.5317 77.9234 88.7517 78.6967 89.1917 79.2574C89.6293 79.8204 90.2481 80.1008 91.0455 80.1008C91.555 80.1008 92.0866 79.9219 92.6381 79.5643C93.1888 79.2066 93.735 78.7475 94.2765 78.1844C94.8173 77.6213 95.3444 76.9978 95.8546 76.3139C95.9302 76.2126 96.0043 76.1114 96.0784 76.0103C96.1067 76.4007 96.1792 76.7961 96.2938 77.1983C96.4466 77.73 96.6902 78.2109 97.0286 78.6386C97.367 79.0664 97.8116 79.4192 98.363 79.6947C98.9138 79.9701 99.5783 80.1079 100.354 80.1079C101.217 80.1079 101.978 79.8687 102.645 79.3878C103.31 78.9069 103.941 78.2785 104.535 77.5028C104.617 78.322 104.873 78.96 105.303 79.4192C105.733 79.8783 106.306 80.1079 107.022 80.1079C107.512 80.1079 108.025 79.9412 108.556 79.6028C109.09 79.267 109.622 78.8271 110.154 78.2858C110.623 77.8101 111.077 77.2821 111.522 76.7036C111.519 76.7843 111.516 76.8639 111.516 76.9421C111.516 77.8822 111.727 78.6434 112.145 79.2259C112.563 79.8083 113.162 80.0983 113.938 80.0983C114.388 80.0983 114.847 79.975 115.318 79.731C115.787 79.4844 116.256 79.1582 116.726 78.7498C116.4 79.4651 116.111 80.1248 115.854 80.7266C115.598 81.3308 115.39 81.865 115.226 82.3363C114.919 82.5799 114.547 82.8221 114.107 83.0566C113.667 83.2934 113.233 83.5103 112.805 83.7158C112.374 83.9189 111.944 84.1343 111.516 84.3589C111.086 84.5835 110.702 84.8226 110.366 85.0792C110.031 85.3351 109.759 85.6108 109.554 85.908C109.349 86.2028 109.247 86.5358 109.247 86.9032H109.252V87.1164C109.334 87.5242 109.494 87.8871 109.728 88.2033C109.963 88.5203 110.25 88.7785 110.586 88.9839C110.924 89.1871 111.296 89.3391 111.705 89.4438C112.114 89.5446 112.534 89.5958 112.961 89.5958C113.453 89.5958 113.943 89.5354 114.433 89.4117C114.924 89.291 115.378 89.1054 115.796 88.861C116.215 88.6165 116.594 88.3148 116.93 87.9573C117.266 87.5999 117.527 87.1836 117.71 86.7153C117.812 86.4709 117.991 86.06 118.247 85.4902C118.501 84.9173 118.761 84.3345 119.027 83.7425L119.762 82.0873C120.62 81.6595 121.504 81.0263 122.413 80.1877C123.322 79.3515 124.194 78.4212 125.033 77.3989C125.869 76.3767 126.652 75.3037 127.377 74.18C128.102 73.0562 128.711 71.9929 129.201 70.9924C129.24 70.8305 129.262 70.7169 129.262 70.6565C129.262 70.4317 129.18 70.2529 129.018 70.12C128.853 69.9895 128.66 69.9218 128.435 69.9218C128.271 69.9218 128.119 69.9677 127.976 70.0596C127.831 70.1514 127.72 70.3109 127.638 70.5356C127.454 71.0045 127.137 71.6232 126.688 72.3892C126.238 73.1553 125.712 73.9528 125.11 74.7793C124.508 75.6082 123.858 76.4249 123.165 77.2322C122.471 78.0393 121.775 78.7184 121.082 79.2694C121.101 79.1679 121.132 79.0761 121.173 78.9939C121.215 78.9117 121.27 78.8102 121.342 78.687C121.413 78.5637 121.504 78.4018 121.618 78.1964C121.73 77.9934 121.867 77.7179 122.031 77.3699C122.42 76.5313 122.853 75.6082 123.334 74.5956C123.815 73.5855 124.264 72.5946 124.683 71.6232C125.1 70.6541 125.449 69.7502 125.724 68.9117C125.999 68.0755 126.137 67.4109 126.137 66.9204C126.137 66.4902 126.05 66.1374 125.876 65.8619C125.702 65.5863 125.492 65.3616 125.248 65.1876C125.004 65.0136 124.743 64.8928 124.467 64.8203C124.192 64.7503 123.95 64.714 123.747 64.714C123.276 64.714 122.858 64.8179 122.49 65.0209C122.123 65.2263 121.94 65.4196 121.94 65.6033C121.94 65.6855 121.959 65.7652 122 65.8474V65.816C122.019 65.8571 122.036 65.8885 122.046 65.9078C122.056 65.9295 122.06 65.9706 122.06 66.0311C122.06 66.4612 121.869 67.1596 121.493 68.1311C121.115 69.1026 120.661 70.1804 120.129 71.3645C119.784 72.0195 119.359 72.7348 118.858 73.5105C118.358 74.2863 117.851 75.0064 117.341 75.671C116.828 76.3356 116.354 76.8914 115.914 77.3409C115.475 77.7904 115.144 78.0152 114.919 78.0152C114.774 78.0152 114.704 77.9548 114.704 77.8315C114.704 77.5246 114.878 77.034 115.226 76.3597C115.574 75.6855 115.961 74.9605 116.391 74.1848C116.698 73.6314 117.014 73.0538 117.341 72.452C117.667 71.8479 117.969 71.2413 118.244 70.6275C118.52 70.0161 118.744 69.4288 118.919 68.8657C119.093 68.3027 119.18 67.7976 119.18 67.3481C119.18 66.8575 119.1 66.4491 118.935 66.1229C118.771 65.7966 118.566 65.5404 118.322 65.3568C118.075 65.1731 117.81 65.0402 117.525 64.9581C117.239 64.8759 116.964 64.8348 116.698 64.8348C116.227 64.8348 115.825 64.9218 115.487 65.0958C115.151 65.2698 114.982 65.468 114.982 65.6928C114.982 65.7942 114.994 65.8595 115.013 65.8909C115.033 65.9199 115.064 65.9561 115.106 65.9972C115.146 66.0794 115.166 66.1398 115.166 66.1808C115.166 66.4684 115.033 66.9276 114.767 67.5608C114.501 68.1939 114.203 68.8802 113.877 69.6149C113.612 70.1877 113.341 70.7966 113.065 71.4395C112.992 71.6104 112.92 71.7814 112.85 71.9526C112.599 72.3942 112.32 72.8593 112.01 73.3462C111.651 73.9093 111.273 74.4651 110.874 75.0161C110.475 75.5671 110.091 76.0673 109.724 76.5168C109.356 76.9663 109.018 77.3288 108.711 77.6043C108.404 77.8798 108.158 78.0175 107.974 78.0175C107.913 78.0175 107.882 77.9378 107.882 77.7735C107.882 77.4666 107.984 77.034 108.189 76.4709C108.395 75.9103 108.658 75.2602 108.986 74.5255C109.315 73.7909 109.689 72.9933 110.108 72.1355C110.528 71.2775 110.963 70.3979 111.412 69.4989C111.966 68.4163 112.515 67.307 113.056 66.1737C113.597 65.0402 114.095 63.9575 114.545 62.9257C114.994 61.8937 115.359 60.9489 115.634 60.0909C115.912 59.2331 116.05 58.5395 116.05 58.0078C116.05 57.5583 115.968 57.1861 115.804 56.8889C115.637 56.5917 115.432 56.3572 115.185 56.1832C114.938 56.0092 114.67 55.8884 114.383 55.8159C114.095 55.7434 113.827 55.7072 113.58 55.7072C113.107 55.7072 112.701 55.7942 112.36 55.9682C112.019 56.1422 111.85 56.3404 111.85 56.5651C111.85 56.7077 111.891 56.8116 111.973 56.872V56.9034C111.973 57.1282 111.889 57.5051 111.715 58.0368C111.541 58.5685 111.302 59.2017 110.997 59.9363C110.692 60.6709 110.347 61.4878 109.96 62.3867C109.574 63.2858 109.167 64.2162 108.74 65.1756L107.795 67.3505H107.79V67.1765C107.79 66.686 107.683 66.2872 107.469 65.9803C107.253 65.6734 106.993 65.4293 106.686 65.2456C106.379 65.062 106.057 64.9387 105.719 64.8783C105.38 64.8179 105.091 64.7865 104.844 64.7865C103.37 64.7865 101.942 65.3278 100.562 66.4105C99.1796 67.4931 97.988 69.2307 96.9851 71.6207C96.9461 71.7188 96.9072 71.818 96.8697 71.9183C96.5993 72.4045 96.2984 72.9095 95.9654 73.4333C95.6079 73.9963 95.2306 74.5474 94.8318 75.0887C94.4331 75.63 94.0443 76.1206 93.667 76.5605C93.2881 77.0003 92.9474 77.3531 92.6404 77.6189C92.3333 77.8847 92.0988 78.0176 91.9346 78.0176C91.7918 78.0176 91.7192 77.9572 91.7192 77.834C91.7192 77.5271 91.8934 77.0365 92.2417 76.3622C92.5892 75.688 92.9765 74.963 93.4065 74.1873C93.7128 73.6339 94.0298 73.0563 94.356 72.4545C94.6821 71.8504 94.9846 71.2439 95.2596 70.63C95.5353 70.0186 95.7599 69.4313 95.9341 68.8682C96.1082 68.3052 96.1953 67.8001 96.1953 67.3507C96.1953 66.8601 96.1128 66.4516 95.9486 66.1254C95.7843 65.7992 95.5789 65.543 95.3344 65.3593C95.0885 65.1756 94.8227 65.0427 94.537 64.9606C94.2521 64.8784 93.9763 64.8373 93.7105 64.8373C93.2392 64.8373 92.8382 64.9243 92.4998 65.0983C92.1638 65.2723 91.9949 65.4705 91.9949 65.6952C91.9949 65.7967 92.0072 65.8619 92.0263 65.8934C92.0454 65.9224 92.0774 65.9586 92.1179 65.9997C92.1569 66.0819 92.1783 66.1423 92.1783 66.1834C92.1783 66.4903 92.0454 66.9495 91.7795 67.5633C91.5137 68.1747 91.2097 68.8707 90.8614 69.6464C90.7575 69.9123 90.6292 70.2023 90.4772 70.5188C90.3252 70.8354 90.1869 71.1254 90.064 71.3913C89.7164 72.0655 89.2933 72.7857 88.793 73.5517C88.2926 74.3178 87.7855 75.0331 87.2752 75.6977C86.7657 76.3622 86.2967 76.9133 85.8667 77.3531C85.4359 77.7929 85.1097 78.0128 84.8852 78.0128C84.7423 78.0128 84.6698 77.9524 84.6698 77.8292C84.6698 77.5223 84.8439 77.0317 85.1922 76.3574C85.5398 75.6832 85.927 74.9582 86.3571 74.1825C86.6641 73.629 86.9804 73.0515 87.3065 72.4497C87.6327 71.8456 87.9352 71.239 88.2101 70.6251C88.4859 70.0138 88.7104 69.4265 88.8846 68.8634C89.0588 68.3004 89.1458 67.7953 89.1458 67.3458C89.1458 66.8552 89.0656 66.4468 88.9014 66.1206C88.7372 65.7943 88.534 65.5382 88.2881 65.3545C88.0413 65.1708 87.7755 65.0379 87.4906 64.9557C87.2049 64.8735 86.93 64.8325 86.6641 64.8325C86.1928 64.8325 85.7888 64.9195 85.4535 65.0935C85.1174 65.2675 84.9478 65.4657 84.9478 65.6904C84.9478 65.7919 84.9577 65.8571 84.9791 65.8885C84.999 65.9175 85.0303 65.9538 85.0715 65.9949C85.1097 66.077 85.1319 66.1375 85.1319 66.1786C85.1319 66.4661 84.999 66.9253 84.7332 67.5584C84.4673 68.1916 84.1702 68.8779 83.8433 69.6126C83.6325 70.0683 83.4178 70.5469 83.2001 71.0473C83.0879 71.2057 82.932 71.3688 82.7319 71.5337C82.4951 71.7295 82.1835 71.9059 81.797 72.0702C81.4074 72.2321 80.917 72.3457 80.3251 72.4061C80.3854 72.1596 80.4358 71.9108 80.4771 71.6546C80.516 71.3984 80.5374 71.1785 80.5374 70.9948C80.5374 70.5864 80.4725 70.2698 80.3396 70.0451C80.2044 69.8227 80.047 69.6632 79.8637 69.5714C79.6796 69.4796 79.4887 69.4288 79.2954 69.4192C79.0998 69.4095 78.9427 69.4047 78.8195 69.4047C78.5343 69.4047 78.2781 69.4699 78.0534 69.6028C77.8287 69.7382 77.6353 69.9097 77.471 70.1248C77.3067 70.3399 77.1859 70.5792 77.1037 70.845C77.0215 71.1108 76.9805 71.3767 76.9805 71.6425C76.9805 72.0509 77.0529 72.4134 77.1955 72.73C77.3381 73.0465 77.5943 73.3075 77.9616 73.5105C77.7175 73.9794 77.4299 74.4796 77.1037 75.0112C76.7774 75.5429 76.4463 76.0335 76.108 76.483C75.7697 76.9324 75.4435 77.307 75.1269 77.6019C74.8102 77.8992 74.5275 78.0466 74.2834 78.0466C73.9354 78.0466 73.6817 77.8726 73.5174 77.5246C73.3531 77.179 73.2709 76.7706 73.2709 76.2993C73.2709 75.7459 73.3579 75.1225 73.5319 74.4288C73.7035 73.7353 73.9331 73.0248 74.2206 72.2998C74.5058 71.5748 74.8345 70.8691 75.2018 70.1853C75.5691 69.5013 75.9461 68.8875 76.3352 68.3462C76.7218 67.8048 77.1012 67.3698 77.4685 67.0436C77.8359 66.7174 78.1718 66.5531 78.4787 66.5531C78.498 66.5531 78.5488 66.5724 78.631 66.6135C78.3869 66.8164 78.2636 67.0968 78.2636 67.4593C78.2636 67.8 78.3917 68.0731 78.6479 68.2737C78.9017 68.4743 79.1941 68.5758 79.52 68.5758C79.8469 68.5758 80.1364 68.4574 80.3931 68.2253C80.6489 67.9934 80.7773 67.643 80.7773 67.1765H80.7864V67.1451C80.7452 66.8817 80.6734 66.6038 80.5718 66.3089C80.4679 66.0142 80.3106 65.7555 80.0952 65.5333C79.8828 65.3085 79.6071 65.1224 79.2687 64.9702C78.9331 64.8179 78.5077 64.743 77.9978 64.743C76.7315 64.743 75.557 65.091 74.4744 65.7846C73.3917 66.4806 72.4565 67.3626 71.671 68.4356C71.238 69.0254 70.8583 69.6472 70.5311 70.3016C70.5012 70.3513 70.4743 70.4059 70.4506 70.4655C70.314 70.7485 70.1871 71.0374 70.0697 71.3324ZM105.644 66.6158C105.4 66.8212 105.277 67.1065 105.277 67.4738C105.277 67.8193 105.405 68.0972 105.656 68.3027C105.912 68.5081 106.205 68.6096 106.531 68.6096C106.86 68.6096 107.135 68.5081 107.36 68.3027C107.135 68.7932 106.929 69.2742 106.746 69.743C106.56 70.2142 106.376 70.6613 106.192 71.0915V71.0601C106.092 71.2437 105.99 71.4419 105.886 71.6569C105.784 71.872 105.683 72.0823 105.579 72.2853C105.231 72.9402 104.873 73.6096 104.504 74.2935C104.134 74.9774 103.766 75.6057 103.397 76.1785C103.029 76.7513 102.664 77.2152 102.307 77.5729C101.949 77.9305 101.615 78.1094 101.308 78.1094C100.961 78.1094 100.71 77.9112 100.557 77.5125C100.405 77.1137 100.328 76.6497 100.328 76.118C100.328 75.526 100.409 74.8808 100.574 74.1871C100.739 73.4936 100.963 72.8484 101.25 72.2563C102.089 70.4583 102.894 69.0688 103.663 68.0876C104.431 67.1065 105.071 66.6158 105.584 66.6158H105.644ZM112.007 87.8535C112.415 87.8535 112.809 87.619 113.186 87.1477C113.566 86.6764 113.999 85.7987 114.489 84.5109L113.539 85.0013C113.233 85.1441 112.932 85.287 112.635 85.4321C112.34 85.5742 112.068 85.7216 111.823 85.8767C111.58 86.031 111.379 86.1883 111.227 86.3525C111.074 86.5167 110.997 86.6886 110.997 86.8742C110.997 87.1187 111.094 87.3432 111.287 87.5487C111.48 87.7519 111.719 87.8535 112.007 87.8535ZM180.519 57.0218C179.996 57.1234 179.612 57.278 179.369 57.481H179.361V57.5076C178.256 58.4669 177.031 59.5907 175.683 60.8788C174.334 62.1644 172.959 63.5346 171.56 64.9846C170.161 66.4346 168.793 67.9257 167.454 69.4579C166.115 70.99 164.905 72.4834 163.822 73.9334C163.578 73.3413 163.341 72.8411 163.116 72.4327C162.892 72.0243 162.626 71.524 162.319 70.932V70.9634L161.582 69.5231C161.399 69.1558 161.208 68.7932 161.014 68.4356C160.82 68.0779 160.629 67.7154 160.446 67.3481C161.079 65.6106 161.524 64.134 161.78 62.9184C162.036 61.7052 162.164 60.6782 162.164 59.8396C162.164 58.6748 161.945 57.7492 161.505 57.0653C161.065 56.3814 160.477 56.0382 159.74 56.0382C159.576 55.9972 159.402 55.9778 159.219 55.9778C158.544 55.9778 157.899 56.147 157.285 56.4829C156.671 56.8213 156.133 57.2804 155.673 57.8628C155.214 58.4453 154.844 59.1461 154.569 59.9628C154.293 60.7821 154.156 61.6593 154.156 62.5994C154.156 63.8053 154.426 65.062 154.968 66.3694C155.511 67.6767 156.222 69.1581 157.101 70.8135C156.899 71.2026 156.601 71.7705 156.212 72.5149C155.826 73.2616 155.35 74.0833 154.786 74.9822C154.223 75.8813 153.595 76.7947 152.899 77.7252C152.203 78.6555 151.461 79.4965 150.674 80.2529C149.885 81.0093 149.061 81.6328 148.203 82.1232C147.346 82.6143 146.476 82.858 145.596 82.858C145.001 82.858 144.48 82.735 144.03 82.4906C143.581 82.2439 143.201 81.9177 142.894 81.5098C142.587 81.1012 142.355 80.6202 142.203 80.0693C142.051 79.5182 141.973 78.9455 141.973 78.3534C141.973 77.5971 142.111 76.8358 142.387 76.0697C142.665 75.3036 143.078 74.5956 143.629 73.9407C144.182 73.2857 144.881 72.7251 145.728 72.2539C146.575 71.785 147.57 71.4781 148.716 71.3355C148.94 71.2945 149.125 71.2026 149.267 71.0601C149.409 70.9175 149.501 70.7338 149.542 70.509C149.542 70.2021 149.405 69.9677 149.129 69.8034C148.853 69.6415 148.525 69.5183 148.148 69.4361C147.769 69.3539 147.381 69.308 146.983 69.2983C146.584 69.2887 146.253 69.2839 145.987 69.2839C144.576 69.2839 143.271 69.5134 142.067 69.9725C140.864 70.4341 139.827 71.0721 138.953 71.8889C138.08 72.7058 137.394 73.6821 136.896 74.8155C136.398 75.9489 136.149 77.2007 136.149 78.5685C136.168 79.5496 136.347 80.4631 136.685 81.3114C137.022 82.1598 137.503 82.8893 138.126 83.5034C138.747 84.1145 139.489 84.6003 140.347 84.9578C141.205 85.316 142.164 85.4947 143.228 85.4947C145.905 85.4947 148.488 84.4628 150.983 82.3989C153.477 80.3351 155.867 77.1378 158.155 72.8073C158.646 73.7667 159.124 74.7285 159.595 75.6879C160.064 76.6497 160.444 77.5874 160.729 78.5081C159.871 79.9387 159.252 81.2244 158.876 82.3699C158.496 83.5126 158.307 84.475 158.307 85.2503C158.307 86.1081 158.542 86.7558 159.013 87.1958C159.482 87.6358 160.147 87.8558 161.004 87.8558C161.657 87.8558 162.275 87.6816 162.858 87.3333C163.44 86.9857 163.951 86.5068 164.39 85.8935C164.83 85.2793 165.176 84.5644 165.432 83.7471C165.688 82.9282 165.816 82.0506 165.816 81.1109C165.816 80.3955 165.704 79.5762 165.48 78.658C165.255 77.7396 164.97 76.8092 164.622 75.8692C165.214 75.0523 165.878 74.1871 166.613 73.2785C167.348 72.3698 168.114 71.4443 168.912 70.5042C169.709 69.5665 170.536 68.6313 171.393 67.7009C172.251 66.7729 173.1 65.8667 173.938 64.9895C173.528 65.9706 173.114 67.1209 172.696 68.438C172.276 69.7551 171.904 71.1494 171.577 72.6212C171.251 74.093 171.031 76.0262 171.031 77.4569C171.031 79.0687 171.164 80.6009 171.43 82.0536C171.696 83.5034 172.14 84.7767 172.764 85.869C173.387 86.9613 174.204 87.8313 175.216 88.4745C176.229 89.1168 177.481 89.4384 178.972 89.4384C179.178 89.4384 179.398 89.4338 179.632 89.4239C179.866 89.4147 180.086 89.3781 180.291 89.3177C180.494 89.2551 180.663 89.1535 180.796 89.0107C180.927 88.8686 180.995 88.6532 180.995 88.3683C180.995 88.1842 180.929 88.02 180.796 87.8771C180.663 87.7351 180.473 87.6426 180.229 87.6022C179.576 87.5197 179.003 87.2347 178.513 86.7444C178.022 86.2532 177.614 85.6108 177.288 84.8134C176.961 84.0182 176.72 83.0825 176.568 82.0101C176.415 80.9369 176.338 79.7865 176.338 78.5612C176.338 77.2128 176.476 75.4535 176.823 73.9407C177.169 72.4279 177.594 70.9368 178.094 69.465C178.597 67.9934 179.172 66.599 179.828 65.2819C180.48 63.9648 181.2 62.7589 181.988 61.6666C182.773 60.5718 183.628 59.6487 184.547 58.8923C184.895 58.6071 185.069 58.322 185.069 58.0344C185.069 57.626 184.772 57.3288 184.18 57.1451C183.588 56.9614 182.923 56.8696 182.189 56.8696C181.597 56.8696 181.041 56.9203 180.519 57.0218ZM190.647 67.1765C190.647 67.643 190.518 67.9934 190.262 68.2253C190.007 68.4574 189.716 68.5758 189.39 68.5758C189.064 68.5758 188.771 68.4743 188.518 68.2737C188.261 68.0731 188.134 67.8 188.134 67.4593C188.134 67.0968 188.257 66.8164 188.501 66.6135C188.419 66.5724 188.368 66.5531 188.348 66.5531C188.042 66.5531 187.706 66.7174 187.338 67.0436C186.971 67.3698 186.591 67.8048 186.205 68.3462C185.816 68.8875 185.439 69.5013 185.071 70.1853C184.704 70.8691 184.378 71.5748 184.091 72.2998C183.803 73.0248 183.573 73.7353 183.402 74.4288C183.227 75.1225 183.14 75.7459 183.14 76.2993C183.14 76.7706 183.223 77.179 183.385 77.5246C183.549 77.8726 183.803 78.0466 184.151 78.0466C184.395 78.0466 184.678 77.8992 184.994 77.6019C185.31 77.307 185.637 76.9324 185.976 76.483C186.311 76.0335 186.645 75.5429 186.971 75.0112C187.297 74.4796 187.585 73.9794 187.829 73.5105C187.461 73.3075 187.206 73.0465 187.063 72.73C186.921 72.4134 186.848 72.0509 186.848 71.6425C186.848 71.3767 186.889 71.1108 186.971 70.845C187.054 70.5792 187.174 70.3399 187.338 70.1248C187.5 69.9097 187.696 69.7382 187.92 69.6028C188.146 69.4699 188.399 69.4047 188.687 69.4047C188.81 69.4047 188.967 69.4095 189.163 69.4192C189.356 69.4288 189.544 69.4796 189.731 69.5714C189.915 69.6632 190.071 69.8227 190.207 70.0451C190.34 70.2698 190.405 70.5864 190.405 70.9948C190.405 71.1785 190.383 71.3984 190.345 71.6546C190.304 71.9108 190.252 72.1596 190.192 72.4061C190.785 72.3457 191.275 72.2321 191.664 72.0702C192.051 71.9059 192.362 71.7295 192.6 71.5337C192.832 71.3419 193.005 71.1523 193.119 70.97C193.441 70.1781 193.79 69.3514 194.166 68.4863C194.398 67.9498 194.631 67.4134 194.864 66.8769L194.867 66.8701L194.869 66.8632C195.104 66.3216 195.34 65.78 195.574 65.2384L196.923 62.1741C196.273 62.1741 196.158 62.1802 195.917 62.1931H195.916V62.1932H195.916L195.915 62.1932C195.785 62.2002 195.618 62.2091 195.311 62.22C194.434 62.2514 193.67 62.3239 193.027 62.4351C192.892 62.459 192.769 62.4789 192.653 62.4978L192.651 62.4982L192.649 62.4984L192.649 62.4985C192.216 62.5689 191.874 62.6244 191.304 62.8145C190.879 62.9571 189.68 63.4718 189.658 63.8609L190.874 63.8875C190.854 64.1751 190.773 64.3926 190.63 64.5472C190.487 64.6995 190.314 64.7768 190.108 64.7768C189.864 64.7768 189.612 64.6245 189.356 64.3176C189.1 64.0107 188.972 63.5419 188.972 62.9087C188.972 62.1935 189.124 61.6013 189.431 61.1301C189.738 60.6613 190.161 60.2915 190.702 60.0257C191.244 59.7599 191.886 59.5762 192.633 59.4747C193.38 59.3732 194.18 59.3224 195.038 59.3224C195.466 59.3224 195.819 59.3505 196.208 59.3815C196.412 59.3977 196.625 59.4147 196.865 59.4288C197.239 59.451 197.329 59.4626 197.45 59.4785C197.554 59.492 197.682 59.5087 198.03 59.5375C198.254 58.9648 198.443 58.4332 198.597 57.9426C198.749 57.452 198.827 57.104 198.827 56.901C198.827 56.8599 198.817 56.831 198.796 56.8092C198.735 56.7681 198.704 56.6859 198.704 56.5651C198.704 56.3404 198.873 56.1422 199.214 55.9682C199.552 55.7942 199.961 55.7072 200.434 55.7072C200.68 55.7072 200.949 55.7434 201.236 55.8159C201.524 55.8884 201.793 56.0092 202.038 56.1832C202.285 56.3572 202.491 56.5868 202.657 56.872C202.821 57.1571 202.904 57.5269 202.904 57.9764C202.904 58.508 202.8 59.1413 202.595 59.8759H203.419C203.603 59.8759 203.785 59.8747 203.967 59.8724C204.018 59.7819 204.068 59.6944 204.117 59.6101C204.228 59.4168 204.286 59.2887 204.286 59.2259C204.286 58.8997 204.542 58.7353 205.053 58.7353C205.277 58.7353 205.553 58.786 205.879 58.8875C206.205 58.989 206.517 59.1389 206.814 59.3322C206.964 59.4302 207.102 59.5432 207.229 59.6707C207.324 59.6584 207.417 59.6454 207.508 59.6318C208.056 59.5496 208.498 59.4482 208.834 59.3249C209.17 59.2016 209.339 59.0494 209.339 58.8657C209.339 58.3751 209.555 58.1311 209.982 58.1311C210.207 58.1311 210.461 58.2592 210.748 58.5129C211.033 58.769 211.179 59.0591 211.179 59.3853C211.179 59.7333 210.917 60.0692 210.398 60.3955C209.876 60.7217 209.183 61.0093 208.315 61.2533C208.163 61.2961 208.006 61.3377 207.846 61.3781C207.819 61.4836 207.772 61.6039 207.703 61.7391C207.59 61.9639 207.474 62.1887 207.351 62.4134C207.208 62.6382 207.08 62.8726 206.969 63.1191C206.855 63.3656 206.797 63.5396 206.797 63.641C206.797 63.8054 206.72 63.931 206.567 64.0253C206.415 64.1171 206.214 64.163 205.971 64.163C205.726 64.163 205.439 64.1123 205.113 64.0108C204.787 63.9093 204.475 63.7619 204.177 63.5662C203.88 63.3728 203.626 63.1215 203.411 62.8145C203.264 62.6049 203.168 62.3669 203.122 62.1C202.659 62.1337 202.188 62.1583 201.71 62.1741C201.261 63.2761 200.724 64.453 200.101 65.6976C199.477 66.9445 198.871 68.1794 198.276 69.4047C197.805 70.323 197.362 71.2244 196.942 72.1016C196.524 72.9813 196.145 73.7884 195.809 74.5231C195.473 75.2577 195.207 75.9078 195.011 76.4685C194.816 77.0316 194.719 77.4641 194.719 77.7711C194.719 77.9354 194.75 78.0151 194.81 78.0151C194.994 78.0151 195.238 77.8774 195.545 77.6019C195.852 77.3264 196.188 76.9639 196.556 76.5144C196.923 76.0649 197.307 75.5646 197.706 75.0137C198.105 74.4627 198.481 73.9068 198.839 73.3438C199.197 72.7831 199.513 72.2514 199.789 71.7512C199.843 71.6531 199.894 71.5579 199.942 71.4656L199.953 71.4395C200.229 70.7967 200.499 70.1877 200.765 69.615C201.091 68.8803 201.388 68.194 201.654 67.5609C201.92 66.9277 202.053 66.4685 202.053 66.1809C202.053 66.1398 202.034 66.0794 201.993 65.9973C201.952 65.9562 201.92 65.9199 201.901 65.891C201.882 65.8595 201.87 65.7943 201.87 65.6928C201.87 65.468 202.038 65.2699 202.375 65.0959C202.713 64.9219 203.114 64.8349 203.585 64.8349C203.851 64.8349 204.127 64.876 204.412 64.9581C204.697 65.0403 204.963 65.1732 205.209 65.3569C205.454 65.5405 205.659 65.7967 205.823 66.1229C205.987 66.4492 206.067 66.8576 206.067 67.3481C206.067 67.7977 205.981 68.3027 205.806 68.8658C205.632 69.4289 205.408 70.0161 205.132 70.6275C204.856 71.2414 204.555 71.848 204.228 72.4521C203.902 73.0538 203.585 73.6314 203.278 74.1848C202.848 74.9605 202.462 75.6856 202.114 76.3598C201.766 77.034 201.592 77.5246 201.592 77.8316C201.592 77.9548 201.662 78.0152 201.807 78.0152C201.971 78.0152 202.206 77.8823 202.513 77.6165C202.819 77.3506 203.16 76.9977 203.539 76.5579C203.917 76.1181 204.306 75.6276 204.704 75.0863C205.103 74.5449 205.48 73.9939 205.838 73.4309C206.195 72.8678 206.517 72.3264 206.802 71.8069C206.909 71.6104 207.006 71.4252 207.094 71.251C207.503 70.242 208.025 69.304 208.662 68.4356C209.448 67.3626 210.383 66.4806 211.466 65.7846C212.549 65.091 213.723 64.743 214.989 64.743C215.5 64.743 215.925 64.8179 216.26 64.9702C216.599 65.1224 216.874 65.3085 217.087 65.5333C217.302 65.7555 217.46 66.0142 217.563 66.3089C217.665 66.6038 217.738 66.8817 217.778 67.1451V67.1765H217.771C217.771 67.643 217.643 67.9934 217.387 68.2253C217.13 68.4574 216.841 68.5758 216.515 68.5758C216.188 68.5758 215.896 68.4743 215.642 68.2737C215.386 68.0731 215.257 67.8 215.257 67.4593C215.257 67.0968 215.381 66.8164 215.625 66.6135C215.543 66.5724 215.492 66.5531 215.473 66.5531C215.166 66.5531 214.83 66.7174 214.463 67.0436C214.096 67.3698 213.716 67.8048 213.329 68.3462C212.94 68.8875 212.563 69.5013 212.196 70.1853C211.829 70.8691 211.502 71.5748 211.214 72.2998C210.927 73.0248 210.697 73.7353 210.526 74.4288C210.352 75.1225 210.265 75.7459 210.265 76.2993C210.265 76.7706 210.347 77.179 210.509 77.5246C210.674 77.8726 210.927 78.0466 211.275 78.0466C211.519 78.0466 211.802 77.8992 212.119 77.6019C212.435 77.307 212.761 76.9324 213.1 76.483C213.436 76.0335 213.769 75.5429 214.096 75.0112C214.422 74.4796 214.709 73.9794 214.953 73.5105C214.586 73.3075 214.33 73.0465 214.187 72.73C214.044 72.4134 213.972 72.0509 213.972 71.6425C213.972 71.3767 214.013 71.1108 214.096 70.845C214.177 70.5792 214.298 70.3399 214.463 70.1248C214.625 69.9097 214.82 69.7382 215.045 69.6028C215.27 69.4699 215.523 69.4047 215.811 69.4047C215.934 69.4047 216.092 69.4095 216.287 69.4192C216.48 69.4288 216.669 69.4796 216.855 69.5714C217.039 69.6632 217.196 69.8227 217.331 70.0451C217.464 70.2698 217.529 70.5864 217.529 70.9948C217.529 71.1785 217.508 71.3984 217.469 71.6546C217.428 71.9108 217.377 72.1596 217.317 72.4061C217.909 72.3457 218.399 72.2321 218.789 72.0702C219.175 71.9059 219.487 71.7295 219.724 71.5337C219.931 71.3623 220.092 71.1929 220.205 71.0287C220.304 70.8222 220.403 70.6184 220.504 70.4172C220.934 69.4772 221.312 68.6241 221.638 67.858C221.964 67.0919 222.128 66.5361 222.128 66.1882C222.128 66.1471 222.109 66.0867 222.068 66.0045C222.027 65.9634 221.995 65.9272 221.976 65.8981C221.956 65.8668 221.945 65.8014 221.945 65.7C221.945 65.4752 222.119 65.2771 222.466 65.1031C222.815 64.9291 223.223 64.8421 223.692 64.8421C223.936 64.8421 224.202 64.8783 224.489 64.9484C224.775 65.0209 225.041 65.1465 225.287 65.3327C225.531 65.5163 225.736 65.7677 225.901 66.0842C226.065 66.4008 226.144 66.7947 226.144 67.2635V67.4158C226.86 66.7005 227.575 66.0939 228.291 65.5912C229.006 65.091 229.711 64.8396 230.405 64.8396C231.181 64.8396 231.794 65.12 232.244 65.6831C232.693 66.2462 232.919 67.017 232.919 67.9982C232.919 68.1625 232.913 68.3051 232.904 68.4259C232.888 68.5116 232.877 68.6034 232.865 68.7004V68.7007C232.859 68.7404 232.854 68.7809 232.849 68.8223C232.807 69.2935 232.716 69.7841 232.573 70.294C232.431 70.8039 232.251 71.3163 232.037 71.8261C231.821 72.3361 231.592 72.8484 231.348 73.3583C231.101 73.8682 230.866 74.3491 230.642 74.7986C230.316 75.4317 230.033 76.0045 229.799 76.5144C229.564 77.0243 229.446 77.423 229.446 77.7106C229.446 77.916 229.569 78.0175 229.813 78.0175C229.977 78.0175 230.216 77.875 230.533 77.5874C230.85 77.3022 231.193 76.9349 231.561 76.483C231.927 76.0335 232.312 75.5332 232.71 74.9823C233.11 74.4313 233.482 73.873 233.829 73.3124C234.178 72.7517 234.489 72.22 234.765 71.7174C235.04 71.2172 235.239 70.8039 235.362 70.4753C235.504 70.108 235.76 69.9242 236.128 69.9242C236.352 69.9242 236.551 69.9919 236.725 70.1224C236.898 70.2553 236.985 70.4342 236.985 70.6589C236.985 70.7 236.976 70.7555 236.954 70.8281C236.933 70.9006 236.913 70.9562 236.894 70.9972C236.688 71.4056 236.42 71.9131 236.082 72.5149C235.746 73.1166 235.357 73.757 234.917 74.4313C234.477 75.1055 234.008 75.7797 233.508 76.454C233.008 77.1282 232.491 77.7372 231.962 78.2785C231.43 78.8199 230.898 79.2597 230.369 79.5956C229.838 79.9339 229.327 80.1007 228.837 80.1007C228.428 80.1007 228.071 80.0137 227.764 79.8397C227.457 79.6657 227.201 79.4264 226.998 79.1195C226.792 78.8126 226.636 78.455 226.524 78.0466C226.41 77.6382 226.355 77.208 226.355 76.7585C226.355 76.1254 226.432 75.4873 226.584 74.8421C226.737 74.1993 226.933 73.5758 227.167 72.9716C227.402 72.3699 227.662 71.7875 227.948 71.2244C228.233 70.6637 228.499 70.1369 228.745 69.6464C229.03 69.0736 229.281 68.5733 229.497 68.1456C229.711 67.7155 229.818 67.3892 229.818 67.1644C229.818 67.0001 229.705 66.9204 229.482 66.9204C229.298 66.9204 229.011 67.0678 228.624 67.365C228.235 67.6623 227.807 68.049 227.336 68.5299C226.865 69.0108 226.386 69.5473 225.896 70.1393C225.405 70.7314 224.965 71.3234 224.578 71.9179L224.61 71.8865C224.426 72.2756 224.231 72.6623 224.028 73.0514C223.822 73.4404 223.619 73.8174 223.414 74.1848C222.882 75.1248 222.428 75.9924 222.051 76.7899C221.671 77.5874 221.483 78.2109 221.483 78.6604C221.483 78.7426 221.493 78.8103 221.515 78.8585L221.52 78.8734V78.8736C221.538 78.9202 221.558 78.971 221.575 79.0277C221.594 79.0688 221.606 79.1413 221.606 79.2428C221.606 79.4869 221.464 79.702 221.179 79.8857C220.891 80.0693 220.555 80.1611 220.168 80.1611C219.985 80.1611 219.765 80.12 219.509 80.0379C219.252 79.9557 219.013 79.818 218.789 79.6247C218.564 79.4313 218.37 79.1703 218.206 78.844C218.042 78.5178 217.962 78.1094 217.962 77.6188C217.962 77.1693 218.039 76.6594 218.191 76.0866C218.344 75.5139 218.544 74.9122 218.789 74.279C218.887 74.0235 218.99 73.7657 219.098 73.5053C218.87 73.577 218.635 73.6399 218.392 73.6942C217.841 73.8174 217.269 73.8875 216.677 73.9093C216.391 74.5231 216.033 75.1852 215.603 75.9006C215.173 76.6159 214.678 77.2901 214.117 77.9233C213.554 78.5564 212.938 79.0833 212.263 79.5014C211.589 79.9194 210.855 80.1297 210.057 80.1297C209.443 80.1297 208.892 80.0112 208.402 79.7769C207.911 79.5425 207.503 79.221 207.177 78.8126C206.851 78.4042 206.599 77.9281 206.425 77.3868C206.254 76.8542 206.167 76.296 206.164 75.7143C206.022 75.9137 205.876 76.1136 205.726 76.3139C205.217 76.9977 204.69 77.6213 204.148 78.1844C203.607 78.7474 203.061 79.2066 202.51 79.5642C201.959 79.9219 201.427 80.1008 200.917 80.1008C200.12 80.1008 199.504 79.8204 199.064 79.2573C198.624 78.6967 198.404 77.9234 198.404 76.9422C198.404 76.8361 198.407 76.7277 198.413 76.6171C197.95 77.2287 197.473 77.7847 196.986 78.2834C196.454 78.8247 195.922 79.2645 195.391 79.6004C194.859 79.9387 194.349 80.1055 193.859 80.1055C193.061 80.1055 192.445 79.8252 192.005 79.2621C191.565 78.7015 191.346 77.9281 191.346 76.947C191.346 76.8043 191.35 76.6666 191.36 76.5337C191.369 76.4008 191.386 76.2631 191.406 76.1205C191.466 75.6299 191.63 74.9919 191.896 74.2041C191.979 73.9595 192.067 73.7058 192.162 73.443C191.877 73.5412 191.579 73.6246 191.268 73.6942C190.717 73.8174 190.144 73.8875 189.552 73.9093C189.267 74.5231 188.909 75.1852 188.479 75.9006C188.049 76.6159 187.553 77.2901 186.992 77.9233C186.429 78.5564 185.814 79.0833 185.139 79.5014C184.465 79.9194 183.73 80.1297 182.933 80.1297C182.319 80.1297 181.768 80.0112 181.277 79.7769C180.787 79.5425 180.378 79.221 180.052 78.8126C179.726 78.4042 179.475 77.9281 179.301 77.3868C179.126 76.8454 179.039 76.2776 179.039 75.6855C179.039 74.5014 179.259 73.264 179.699 71.976C180.139 70.6879 180.75 69.5086 181.539 68.4356C182.324 67.3626 183.259 66.4806 184.342 65.7846C185.424 65.091 186.599 64.743 187.865 64.743C188.375 64.743 188.8 64.8179 189.137 64.9702C189.475 65.1224 189.75 65.3085 189.963 65.5333C190.178 65.7555 190.335 66.0142 190.439 66.3089C190.54 66.6038 190.613 66.8817 190.654 67.1451V67.1765H190.647Z" fill="#ECF1FF"/>
</g>
<defs>
<filter id="filter0_d_745_11" x="0" y="0" width="249" height="136.284" filterUnits="userSpaceOnUse" color-interpolation-filters="sRGB">
<feFlood flood-opacity="0" result="BackgroundImageFix"/>
<feColorMatrix in="SourceAlpha" type="matrix" values="0 0 0 0 0 0 0 0 0 0 0 0 0 0 0 0 0 0 127 0" result="hardAlpha"/>
<feOffset/>
<feGaussianBlur stdDeviation="6"/>
<feColorMatrix type="matrix" values="0 0 0 0 0.658824 0 0 0 0 0.266667 0 0 0 0 1 0 0 0 1 0"/>
<feBlend mode="normal" in2="BackgroundImageFix" result="effect1_dropShadow_745_11"/>
<feBlend mode="normal" in="SourceGraphic" in2="effect1_dropShadow_745_11" result="shape"/>
</filter>
</defs>
</svg>
