<svg width="578" height="122" viewBox="0 0 578 122" fill="none" xmlns="http://www.w3.org/2000/svg">
<path d="M30.9244 104.952L27.4698 109.858L27.509 109.885L27.5487 109.912L30.9244 104.952ZM20.9884 80.76V74.76H15.6182L15.0251 80.0974L20.9884 80.76ZM46.6204 80.76L52.6018 81.2322L53.1128 74.76H46.6204V80.76ZM67.2124 90.12L63.6461 85.2949L63.5945 85.3331L63.5437 85.3723L67.2124 90.12ZM66.3484 75.72L62.861 80.6024L62.9013 80.6312L62.942 80.6593L66.3484 75.72ZM53.6764 69.24L55.9841 63.7015L55.9773 63.6987L55.9705 63.6959L53.6764 69.24ZM39.9964 62.76L36.8677 67.8797L36.9505 67.9303L37.0348 67.9781L39.9964 62.76ZM30.9244 54.264L26.0777 57.8008L26.0777 57.8008L30.9244 54.264ZM27.0364 40.872H33.0364V40.8285L33.0358 40.785L27.0364 40.872ZM45.9004 12.36L43.5048 6.85898L43.5048 6.85898L45.9004 12.36ZM84.7804 11.784L82.5009 17.3341L82.5436 17.3516L82.5865 17.3685L84.7804 11.784ZM97.3084 21.144L92.4414 24.6528L92.461 24.6801L92.481 24.7071L97.3084 21.144ZM101.628 38.712V44.712H106.832L107.568 39.5605L101.628 38.712ZM75.4204 38.712L69.5996 37.2568L67.7357 44.712H75.4204V38.712ZM72.6844 30.504L68.558 34.8597L68.6753 34.9709L68.7985 35.0756L72.6844 30.504ZM56.5564 30.504L60.2251 35.2517L60.2397 35.2404L60.2543 35.229L56.5564 30.504ZM57.4204 44.616L53.8204 49.416L53.8762 49.4579L53.933 49.4984L57.4204 44.616ZM69.9484 51.384L72.4452 45.9281L72.4452 45.9281L69.9484 51.384ZM83.7724 58.584L80.6048 63.6797L80.6351 63.6985L80.6656 63.717L83.7724 58.584ZM93.1324 67.512L88.1993 70.9273L88.2201 70.9574L88.2413 70.9872L93.1324 67.512ZM92.2684 97.032L97.2451 100.384L97.2451 100.384L92.2684 97.032ZM78.5884 108.12L80.984 113.621L81.0211 113.605L81.058 113.588L78.5884 108.12ZM57.7084 106.008C47.6008 106.008 39.9508 103.837 34.3002 99.9917L27.5487 109.912C35.722 115.475 45.9281 118.008 57.7084 118.008V106.008ZM34.3791 100.046C29.2474 96.4325 26.7004 91.5428 26.7004 84.648H14.7004C14.7004 95.2252 18.9695 103.872 27.4698 109.858L34.3791 100.046ZM26.7004 84.648C26.7004 84.1294 26.7649 83.1037 26.9517 81.4226L15.0251 80.0974C14.8279 81.8723 14.7004 83.4386 14.7004 84.648H26.7004ZM20.9884 86.76H46.6204V74.76H20.9884V86.76ZM40.639 80.2878C40.2533 85.1744 41.3909 89.8957 44.8723 93.5429L53.5526 85.2571C53.002 84.6803 52.4116 83.6416 52.6018 81.2322L40.639 80.2878ZM44.8723 93.5429C48.4224 97.262 53.3519 98.568 58.4284 98.568V86.568C55.249 86.568 54.0344 85.762 53.5526 85.2571L44.8723 93.5429ZM58.4284 98.568C62.9769 98.568 67.3684 97.5821 70.8811 94.8677L63.5437 85.3723C62.8325 85.9219 61.3679 86.568 58.4284 86.568V98.568ZM70.7788 94.9451C74.6607 92.0758 76.5244 87.9018 76.5244 83.208H64.5244C64.5244 84.4662 64.1802 84.9002 63.6461 85.2949L70.7788 94.9451ZM76.5244 83.208C76.5244 77.9411 73.9708 73.6883 69.7548 70.7807L62.942 80.6593C64.2941 81.5917 64.5244 82.3309 64.5244 83.208H76.5244ZM69.8359 70.8376C66.5875 68.5174 61.8622 66.1508 55.9841 63.7015L51.3687 74.7785C57.0106 77.1292 60.7333 79.0826 62.861 80.6024L69.8359 70.8376ZM55.9705 63.6959C50.5349 61.4467 46.2194 59.3929 42.9581 57.5419L37.0348 67.9781C40.8774 70.1591 45.682 72.4253 51.3823 74.7841L55.9705 63.6959ZM43.1251 57.6403C40.3955 55.9722 37.9397 53.6989 35.7712 50.7272L26.0777 57.8008C29.0931 61.9331 32.6853 65.3238 36.8677 67.8797L43.1251 57.6403ZM35.7712 50.7272C34.0824 48.4129 33.0364 45.2651 33.0364 40.872H21.0364C21.0364 47.2309 22.5825 53.0111 26.0777 57.8008L35.7712 50.7272ZM33.0358 40.785C32.9556 35.2527 34.3024 30.7422 36.8795 26.987L26.9853 20.1969C22.8424 26.2338 20.9252 33.2433 21.0371 40.9589L33.0358 40.785ZM36.8795 26.987C39.5443 23.104 43.2754 20.0474 48.296 17.861L43.5048 6.85898C36.6215 9.85658 31.0405 14.288 26.9853 20.1969L36.8795 26.987ZM48.296 17.861C53.3669 15.6527 59.3441 14.472 66.3484 14.472V2.472C57.9928 2.472 50.3379 3.88328 43.5048 6.85898L48.296 17.861ZM66.3484 14.472C72.6237 14.472 77.9713 15.4737 82.5009 17.3341L87.0599 6.23388C80.8375 3.67825 73.8972 2.472 66.3484 2.472V14.472ZM82.5865 17.3685C87.0396 19.1179 90.2265 21.5806 92.4414 24.6528L102.175 17.6352C98.4383 12.4514 93.2733 8.67407 86.9743 6.19949L82.5865 17.3685ZM92.481 24.7071C94.6111 27.593 95.7724 31.1089 95.7724 35.544H107.772C107.772 28.8431 105.958 22.759 102.136 17.5809L92.481 24.7071ZM95.7724 35.544C95.7724 36.9415 95.7208 37.6388 95.6887 37.8635L107.568 39.5605C107.728 38.4412 107.772 37.0265 107.772 35.544H95.7724ZM101.628 32.712H75.4204V44.712H101.628V32.712ZM81.2413 40.1672C81.5209 39.0489 81.5644 37.8748 81.5644 36.984H69.5644C69.5644 37.252 69.5557 37.415 69.5492 37.4937C69.5461 37.5305 69.5451 37.5297 69.5498 37.4979C69.5542 37.4685 69.5679 37.3833 69.5996 37.2568L81.2413 40.1672ZM81.5644 36.984C81.5644 32.6695 79.9301 28.7882 76.5703 25.9324L68.7985 35.0756C69.2787 35.4838 69.5644 35.9225 69.5644 36.984H81.5644ZM76.8109 26.1483C73.5698 23.0778 69.3769 21.912 65.0524 21.912V33.912C67.256 33.912 68.151 34.4742 68.558 34.8597L76.8109 26.1483ZM65.0524 21.912C60.5756 21.912 56.349 23.0474 52.8586 25.779L60.2543 35.229C61.1799 34.5046 62.6172 33.912 65.0524 33.912V21.912ZM52.8877 25.7563C49.1763 28.6242 47.3884 32.7033 47.3884 37.272H59.3884C59.3884 36.0807 59.7126 35.6478 60.2251 35.2517L52.8877 25.7563ZM47.3884 37.272C47.3884 42.3711 49.9072 46.4811 53.8204 49.416L61.0204 39.816C59.5577 38.7189 59.3884 37.9329 59.3884 37.272H47.3884ZM53.933 49.4984C57.095 51.7569 61.6877 54.2021 67.4517 56.8398L72.4452 45.9281C66.8811 43.3819 63.1219 41.3151 60.9079 39.7336L53.933 49.4984ZM67.4517 56.8398C72.9847 59.3719 77.3453 61.6535 80.6048 63.6797L86.94 53.4883C83.0955 51.0985 78.2401 48.5801 72.4452 45.9281L67.4517 56.8398ZM80.6656 63.717C83.5424 65.4582 86.0551 67.8301 88.1993 70.9273L98.0656 64.0967C95.0258 59.7059 91.2985 56.1258 86.8792 53.451L80.6656 63.717ZM88.2413 70.9872C89.9766 73.4294 91.0204 76.6613 91.0204 81.048H103.02C103.02 74.6827 101.472 68.8906 98.0235 64.0368L88.2413 70.9872ZM91.0204 81.048C91.0204 85.8683 89.7587 90.0174 87.2918 93.6804L97.2451 100.384C101.114 94.6386 103.02 88.1317 103.02 81.048H91.0204ZM87.2918 93.6804C84.8363 97.3264 81.2119 100.352 76.1189 102.652L81.058 113.588C87.869 110.512 93.3645 106.146 97.2451 100.384L87.2918 93.6804ZM76.1928 102.619C71.1477 104.816 65.0347 106.008 57.7084 106.008V118.008C66.3182 118.008 74.1251 116.608 80.984 113.621L76.1928 102.619ZM219.287 9.912L225.201 10.9197L226.395 3.912H219.287V9.912ZM215.975 29.352V35.352H221.039L221.889 30.3597L215.975 29.352ZM189.047 29.352V23.352H184.012L183.138 28.3099L189.047 29.352ZM174.647 111V117H179.681L180.555 112.042L174.647 111ZM150.023 111L144.114 109.958L142.872 117H150.023V111ZM164.423 29.352L170.331 30.3941L171.573 23.352H164.423V29.352ZM137.639 29.352L131.731 28.3018L130.478 35.352H137.639V29.352ZM141.095 9.912V3.912H136.067L135.187 8.8618L141.095 9.912ZM213.372 8.90429L210.06 28.3443L221.889 30.3597L225.201 10.9197L213.372 8.90429ZM215.975 23.352H189.047V35.352H215.975V23.352ZM183.138 28.3099L168.738 109.958L180.555 112.042L194.955 30.3941L183.138 28.3099ZM174.647 105H150.023V117H174.647V105ZM155.931 112.042L170.331 30.3941L158.514 28.3099L144.114 109.958L155.931 112.042ZM164.423 23.352H137.639V35.352H164.423V23.352ZM143.546 30.4022L147.002 10.9622L135.187 8.8618L131.731 28.3018L143.546 30.4022ZM141.095 15.912H219.287V3.912H141.095V15.912ZM260.877 106.68L257.976 111.932L257.993 111.941L258.009 111.95L260.877 106.68ZM245.901 91.704L251.153 88.8035L251.153 88.8035L245.901 91.704ZM248.205 37.992L253.457 40.8919L253.464 40.8804L253.47 40.8689L248.205 37.992ZM269.373 16.248L266.408 11.0318L266.396 11.0385L266.384 11.0454L269.373 16.248ZM323.085 13.8L320.217 19.0703L320.247 19.0867L320.277 19.1027L323.085 13.8ZM338.205 28.632L332.952 31.5325L332.962 31.5493L332.971 31.566L338.205 28.632ZM335.901 82.344L341.166 85.2209L341.172 85.2096L341.178 85.1982L335.901 82.344ZM314.589 104.232L317.554 109.448L317.574 109.436L317.595 109.425L314.589 104.232ZM303.933 84.36L307.307 89.3216L307.307 89.3216L303.933 84.36ZM315.021 71.256L309.617 68.6475L309.608 68.6675L309.598 68.6875L315.021 71.256ZM313.293 36.984L317.587 32.7941L317.587 32.7941L313.293 36.984ZM280.317 35.976L276.988 30.9837L276.966 30.999L276.943 31.0144L280.317 35.976ZM269.085 49.08L263.699 46.4346L263.69 46.4544L263.68 46.4742L269.085 49.08ZM270.957 83.352L266.612 87.4899L266.637 87.5161L266.662 87.5419L270.957 83.352ZM283.485 106.008C275.791 106.008 269.268 104.415 263.744 101.41L258.009 111.95C265.541 116.049 274.09 118.008 283.485 118.008V106.008ZM263.777 101.428C258.335 98.4223 254.158 94.2456 251.153 88.8035L240.648 94.6045C244.747 102.026 250.554 107.834 257.976 111.932L263.777 101.428ZM251.153 88.8035C248.155 83.375 246.573 77.0061 246.573 69.528H234.573C234.573 78.7539 236.542 87.169 240.648 94.6045L251.153 88.8035ZM246.573 69.528C246.573 58.6087 248.917 49.1162 253.457 40.8919L242.952 35.0921C237.316 45.2998 234.573 56.8313 234.573 69.528H246.573ZM253.47 40.8689C258.039 32.507 264.316 26.0726 272.361 21.4506L266.384 11.0454C256.382 16.7913 248.546 24.853 242.939 35.1151L253.47 40.8689ZM272.338 21.4642C280.467 16.8433 289.748 14.472 300.333 14.472V2.472C287.878 2.472 276.518 5.28471 266.408 11.0318L272.338 21.4642ZM300.333 14.472C308.135 14.472 314.702 16.0698 320.217 19.0703L325.952 8.52967C318.411 4.42623 309.811 2.472 300.333 2.472V14.472ZM320.277 19.1027C325.78 22.0158 329.968 26.1277 332.952 31.5325L343.457 25.7315C339.338 18.2723 333.445 12.4961 325.892 8.49727L320.277 19.1027ZM332.971 31.566C335.955 36.8892 337.533 43.149 337.533 50.52H349.533C349.533 41.379 347.558 33.0468 343.438 25.698L332.971 31.566ZM337.533 50.52C337.533 61.4371 335.189 71.047 330.623 79.4898L341.178 85.1982C346.788 74.825 349.533 63.2189 349.533 50.52H337.533ZM330.635 79.4671C326.07 87.822 319.745 94.314 311.582 99.0394L317.595 109.425C327.673 103.59 335.555 95.49 341.166 85.2209L330.635 79.4671ZM311.624 99.0158C303.502 103.632 294.175 106.008 283.485 106.008V118.008C296.026 118.008 307.436 115.2 317.554 109.448L311.624 99.0158ZM287.229 95.256C294.653 95.256 301.42 93.3242 307.307 89.3216L300.559 79.3984C296.845 81.9238 292.477 83.256 287.229 83.256V95.256ZM307.307 89.3216C313.029 85.4301 317.414 80.219 320.443 73.8245L309.598 68.6875C307.443 73.237 304.436 76.7619 300.559 79.3984L307.307 89.3216ZM320.424 73.8645C323.521 67.4499 325.053 60.5539 325.053 53.256H313.053C313.053 58.8221 311.897 63.9261 309.617 68.6475L320.424 73.8645ZM325.053 53.256C325.053 45.2009 322.784 38.1206 317.587 32.7941L308.998 41.1739C311.481 43.7194 313.053 47.4871 313.053 53.256H325.053ZM317.587 32.7941C312.344 27.4197 305.254 25.08 297.165 25.08V37.08C302.9 37.08 306.561 38.6763 308.998 41.1739L317.587 32.7941ZM297.165 25.08C289.739 25.08 282.946 27.0117 276.988 30.9837L283.645 40.9683C287.479 38.4123 291.918 37.08 297.165 37.08V25.08ZM276.943 31.0144C271.239 34.893 266.822 40.078 263.699 46.4346L274.47 51.7254C276.723 47.138 279.794 43.587 283.691 40.9376L276.943 31.0144ZM263.68 46.4742C260.661 52.7369 259.197 59.5915 259.197 66.936H271.197C271.197 61.2244 272.325 56.1751 274.489 51.6858L263.68 46.4742ZM259.197 66.936C259.197 74.9979 261.467 82.0882 266.612 87.4899L275.302 79.2141C272.766 76.5518 271.197 72.6981 271.197 66.936H259.197ZM266.662 87.5419C271.921 92.9319 279.071 95.256 287.229 95.256V83.256C281.37 83.256 277.673 81.6441 275.251 79.1621L266.662 87.5419ZM453.28 17.112L449.323 21.6226L449.346 21.6423L449.368 21.6619L453.28 17.112ZM460.912 41.736L455.028 40.5593L455.012 40.6405L454.998 40.7222L460.912 41.736ZM452.128 59.736L456.608 63.7272L456.608 63.7272L452.128 59.736ZM433.264 70.968L431.643 65.1909L425.176 67.0049L427.705 73.2273L433.264 70.968ZM449.536 111V117H458.451L455.094 108.741L449.536 111ZM421.744 111L416.123 113.1L417.58 117H421.744V111ZM407.488 72.84L413.108 70.7402L411.651 66.84H407.488V72.84ZM401.584 72.84V66.84H396.554L395.676 71.7922L401.584 72.84ZM394.816 111V117H399.845L400.724 112.048L394.816 111ZM370.192 111L364.283 109.956L363.039 117H370.192V111ZM388.048 9.912V3.912H383.015L382.139 8.86832L388.048 9.912ZM435.712 42.744L441.606 43.8667L441.642 43.6784L441.665 43.4882L435.712 42.744ZM432.976 32.664L428.962 37.1238L429.079 37.2287L429.201 37.3275L432.976 32.664ZM409.072 30.072V24.072H404.036L403.163 29.0312L409.072 30.072ZM404.608 55.416L398.699 54.3752L397.459 61.416H404.608V55.416ZM430.528 52.104L426.719 47.4676L426.678 47.5017L426.637 47.5365L430.528 52.104ZM429.376 15.912C439.012 15.912 445.34 18.1286 449.323 21.6226L457.236 12.6014C450.276 6.49538 440.668 3.912 429.376 3.912V15.912ZM449.368 21.6619C453.439 25.1614 455.488 29.6068 455.488 35.544H467.488C467.488 26.3132 464.064 18.4706 457.191 12.5621L449.368 21.6619ZM455.488 35.544C455.488 37.4061 455.326 39.0722 455.028 40.5593L466.795 42.9127C467.266 40.5598 467.488 38.0979 467.488 35.544H455.488ZM454.998 40.7222C454.043 46.2926 451.634 51.2707 447.648 55.7448L456.608 63.7272C462.03 57.6413 465.476 50.6194 466.826 42.7498L454.998 40.7222ZM447.648 55.7448C443.82 60.0413 438.587 63.2432 431.643 65.1909L434.884 76.745C443.684 74.2768 451.028 69.9907 456.608 63.7272L447.648 55.7448ZM427.705 73.2273L443.977 113.259L455.094 108.741L438.822 68.7087L427.705 73.2273ZM449.536 105H421.744V117H449.536V105ZM427.364 108.9L413.108 70.7402L401.867 74.9398L416.123 113.1L427.364 108.9ZM407.488 66.84H401.584V78.84H407.488V66.84ZM395.676 71.7922L388.908 109.952L400.724 112.048L407.492 73.8878L395.676 71.7922ZM394.816 105H370.192V117H394.816V105ZM376.1 112.044L393.956 10.9557L382.139 8.86832L364.283 109.956L376.1 112.044ZM388.048 15.912H429.376V3.912H388.048V15.912ZM441.665 43.4882C441.847 42.0346 442 40.6423 442 39.72H430C430 39.6585 430 39.793 429.955 40.2671C429.914 40.6907 429.85 41.2632 429.758 41.9998L441.665 43.4882ZM442 39.72C442 35.2091 440.44 30.9866 436.751 28.0005L429.201 37.3275C429.544 37.6053 430 38.0869 430 39.72H442ZM436.99 28.2042C433.538 25.0974 428.954 24.072 424.336 24.072V36.072C427.398 36.072 428.574 36.7746 428.962 37.1238L436.99 28.2042ZM424.336 24.072H409.072V36.072H424.336V24.072ZM403.163 29.0312L398.699 54.3752L410.517 56.4568L414.981 31.1128L403.163 29.0312ZM404.608 61.416H419.872V49.416H404.608V61.416ZM419.872 61.416C425.341 61.416 430.431 60.0685 434.419 56.6715L426.637 47.5365C425.441 48.5555 423.427 49.416 419.872 49.416V61.416ZM434.336 56.7404C438.297 53.4865 440.625 49.0178 441.606 43.8667L429.818 41.6213C429.263 44.5342 428.134 46.3055 426.719 47.4676L434.336 56.7404ZM524.753 29.352V23.352H519.693L518.839 28.3393L524.753 29.352ZM521.153 50.376L515.239 49.3633L514.039 56.376H521.153V50.376ZM554.129 50.376L560.036 51.4292L561.294 44.376H554.129V50.376ZM550.817 68.952V74.952H555.842L556.724 70.0052L550.817 68.952ZM517.841 68.952V62.952H512.817L511.934 67.8986L517.841 68.952ZM513.809 91.56L507.902 90.5066L506.645 97.56H513.809V91.56ZM551.105 91.56L557.013 92.6102L558.266 85.56H551.105V91.56ZM547.649 111V117H552.677L553.557 112.05L547.649 111ZM485.729 111L479.821 109.956L478.577 117H485.729V111ZM503.585 9.912V3.912H498.552L497.677 8.86832L503.585 9.912ZM565.505 9.912L571.413 10.9622L572.666 3.912H565.505V9.912ZM562.049 29.352V35.352H567.077L567.957 30.4022L562.049 29.352ZM518.839 28.3393L515.239 49.3633L527.067 51.3887L530.667 30.3647L518.839 28.3393ZM521.153 56.376H554.129V44.376H521.153V56.376ZM548.222 49.3228L544.91 67.8988L556.724 70.0052L560.036 51.4292L548.222 49.3228ZM550.817 62.952H517.841V74.952H550.817V62.952ZM511.934 67.8986L507.902 90.5066L519.716 92.6134L523.748 70.0054L511.934 67.8986ZM513.809 97.56H551.105V85.56H513.809V97.56ZM545.198 90.5098L541.742 109.95L553.557 112.05L557.013 92.6102L545.198 90.5098ZM547.649 105H485.729V117H547.649V105ZM491.638 112.044L509.494 10.9557L497.677 8.86832L479.821 109.956L491.638 112.044ZM503.585 15.912H565.505V3.912H503.585V15.912ZM559.598 8.8618L556.142 28.3018L567.957 30.4022L571.413 10.9622L559.598 8.8618ZM562.049 23.352H524.753V35.352H562.049V23.352Z" fill="#ECF1FF"/>
</svg>
